<?xml version="1.0" standalone="no"?>
<!DOCTYPE svg PUBLIC "-//W3C//DTD SVG 1.1//EN"
  "http://www.w3.org/Graphics/SVG/1.1/DTD/svg11.dtd">

<svg xmlns="http://www.w3.org/2000/svg" version="1.1" class="railroad-diagram" width="329" height="251" viewBox="0 0 329 251" xmlns:xlink="http://www.w3.org/1999/xlink">

    <defs>
        <style type="text/css"><![CDATA[ svg.railroad-diagram {
  background-color: #ffffff;
}
svg.railroad-diagram path {
  stroke-width: 2;
  stroke: #5a6872;
  fill: none;
}
svg.railroad-diagram text {
  font-size: 14px;
  font-family: 'ibm-plex-mono', 'Menlo', 'DejaVu Sans Mono', 'Bitstream Vera Sans Mono', Courier, monospace;
  color: #152935;
  text-anchor: middle;
  cursor: pointer;
}
svg.railroad-diagram text.label {
  text-anchor: start;
}
svg.railroad-diagram text.comment {
  font-size: 12px;
}
svg.railroad-diagram rect {
  stroke-width: 2;
  stroke:  #5a6872;
  fill: #5aaafa;
}
 ]]></style>
    </defs>
    
<g transform="translate(.5 .5)">
<path d="M 20 21 v 20 m 10 -20 v 20 m -10 -10 h 20.5"/>
<g>
<path d="M40 31h0"/>
<path d="M288 31h0"/>
<path d="M40 31h20"/>
<g>
<path d="M60 31h78"/>
<path d="M190 31h78"/>
<rect x="138" y="20" width="52" height="22" rx="10" ry="10"/>
<text x="164" y="35">NULL</text>
</g>
<path d="M268 31h20"/>
<path d="M40 31a10 10 0 0 1 10 10v10a10 10 0 0 0 10 10"/>
<g>
<a xlink:href="#interval">
<path d="M60 61h62"/>
<path d="M206 61h62"/>
<rect x="122" y="50" width="84" height="22"/>
<text x="164" y="65">interval</text>
</a>
</g>
<path d="M268 61a10 10 0 0 0 10 -10v-10a10 10 0 0 1 10 -10"/>
<path d="M40 31a10 10 0 0 1 10 10v40a10 10 0 0 0 10 10"/>
<g>
<path d="M60 91h0"/>
<path d="M268 91h0"/>
<path d="M60 91h10"/>
<g>
<a xlink:href="#identifier">
<path d="M70 91h0"/>
<path d="M170 91h0"/>
<rect x="70" y="80" width="100" height="22"/>
<text x="120" y="95">identifier</text>
</a>
</g>
<path d="M170 91h10"/>
<path d="M180 91h10"/>
<g>
<a xlink:href="#STRING">
<path d="M190 91h0"/>
<path d="M258 91h0"/>
<rect x="190" y="80" width="68" height="22"/>
<text x="224" y="95">STRING</text>
</a>
</g>
<path d="M258 91h10"/>
</g>
<path d="M268 91a10 10 0 0 0 10 -10v-40a10 10 0 0 1 10 -10"/>
<path d="M40 31a10 10 0 0 1 10 10v70a10 10 0 0 0 10 10"/>
<g>
<a xlink:href="#number">
<path d="M60 121h70"/>
<path d="M198 121h70"/>
<rect x="130" y="110" width="68" height="22"/>
<text x="164" y="125">number</text>
</a>
</g>
<path d="M268 121a10 10 0 0 0 10 -10v-70a10 10 0 0 1 10 -10"/>
<path d="M40 31a10 10 0 0 1 10 10v100a10 10 0 0 0 10 10"/>
<g>
<path d="M60 151h78"/>
<path d="M190 151h78"/>
<rect x="138" y="140" width="52" height="22" rx="10" ry="10"/>
<text x="164" y="155">TRUE</text>
</g>
<path d="M268 151a10 10 0 0 0 10 -10v-100a10 10 0 0 1 10 -10"/>
<path d="M40 31a10 10 0 0 1 10 10v130a10 10 0 0 0 10 10"/>
<g>
<path d="M60 181h74"/>
<path d="M194 181h74"/>
<rect x="134" y="170" width="60" height="22" rx="10" ry="10"/>
<text x="164" y="185">FALSE</text>
</g>
<path d="M268 181a10 10 0 0 0 10 -10v-130a10 10 0 0 1 10 -10"/>
<path d="M40 31a10 10 0 0 1 10 10v160a10 10 0 0 0 10 10"/>
<g>
<path d="M60 211h60"/>
<path d="M208 211h60"/>
<path d="M120 211h10"/>
<g>
<a xlink:href="#STRING">
<path d="M130 211h0"/>
<path d="M198 211h0"/>
<rect x="130" y="200" width="68" height="22"/>
<text x="164" y="215">STRING</text>
</a>
</g>
<path d="M198 211h10"/>
<path d="M130 211a10 10 0 0 0 -10 10v0a10 10 0 0 0 10 10"/>
<g>
<path d="M130 231h68"/>
</g>
<path d="M198 231a10 10 0 0 0 10 -10v0a10 10 0 0 0 -10 -10"/>
</g>
<path d="M268 211a10 10 0 0 0 10 -10v-160a10 10 0 0 1 10 -10"/>
</g>
<path d="M 288 31 h 20 m -10 -10 v 20 m 10 -20 v 20"/>
</g>
</svg>
