<?xml version="1.0" standalone="no"?>
<!DOCTYPE svg PUBLIC "-//W3C//DTD SVG 1.1//EN"
  "http://www.w3.org/Graphics/SVG/1.1/DTD/svg11.dtd">

<svg xmlns="http://www.w3.org/2000/svg" version="1.1" class="railroad-diagram" width="697" height="222" viewBox="0 0 697 222" xmlns:xlink="http://www.w3.org/1999/xlink">

    <defs>
        <style type="text/css"><![CDATA[ svg.railroad-diagram {
  background-color: #ffffff;
}
svg.railroad-diagram path {
  stroke-width: 2;
  stroke: #5a6872;
  fill: none;
}
svg.railroad-diagram text {
  font-size: 14px;
  font-family: 'ibm-plex-mono', 'Menlo', 'DejaVu Sans Mono', 'Bitstream Vera Sans Mono', Courier, monospace;
  color: #152935;
  text-anchor: middle;
  cursor: pointer;
}
svg.railroad-diagram text.label {
  text-anchor: start;
}
svg.railroad-diagram text.comment {
  font-size: 12px;
}
svg.railroad-diagram rect {
  stroke-width: 2;
  stroke:  #5a6872;
  fill: #5aaafa;
}
 ]]></style>
    </defs>
    
<g transform="translate(.5 .5)">
        <path d="M 20 21 v 20 m 10 -20 v 20 m -10 -10 h 20.5"/>
        <g>
            <path d="M40 31h0"/>
            <path d="M656 31h0"/>
            <path d="M40 31h20"/>
            <g>
                <a xlink:href="#primitiveType">
                    <path d="M60 31h226"/>
                    <path d="M410 31h226"/>
                    <rect x="286" y="20" width="124" height="22"/>
<text x="348" y="35">primitiveType</text>
                </a>
            </g>
            <path d="M636 31h20"/>
            <path d="M40 31a10 10 0 0 1 10 10v10a10 10 0 0 0 10 10"/>
            <g>
                <path d="M60 61h148"/>
                <path d="M488 61h148"/>
                <path d="M208 61h10"/>
                <g>
                    <path d="M218 61h0"/>
                    <path d="M278 61h0"/>
                    <rect x="218" y="50" width="60" height="22" rx="10" ry="10"/>
<text x="248" y="65">ARRAY</text>
                </g>
                <path d="M278 61h10"/>
                <path d="M288 61h10"/>
                <g>
                    <path d="M298 61h0"/>
                    <path d="M326 61h0"/>
                    <rect x="298" y="50" width="28" height="22" rx="10" ry="10"/>
<text x="312" y="65">&lt;</text>
                </g>
                <path d="M326 61h10"/>
                <path d="M336 61h10"/>
                <g>
                    <a xlink:href="#dataType">
                        <path d="M346 61h0"/>
                        <path d="M430 61h0"/>
                        <rect x="346" y="50" width="84" height="22"/>
<text x="388" y="65">dataType</text>
                    </a>
                </g>
                <path d="M430 61h10"/>
                <path d="M440 61h10"/>
                <g>
                    <path d="M450 61h0"/>
                    <path d="M478 61h0"/>
                    <rect x="450" y="50" width="28" height="22" rx="10" ry="10"/>
<text x="464" y="65">&gt;</text>
                </g>
                <path d="M478 61h10"/>
            </g>
            <path d="M636 61a10 10 0 0 0 10 -10v-10a10 10 0 0 1 10 -10"/>
            <path d="M40 31a10 10 0 0 1 10 10v40a10 10 0 0 0 10 10"/>
            <g>
                <path d="M60 91h80"/>
                <path d="M556 91h80"/>
                <path d="M140 91h10"/>
                <g>
                    <path d="M150 91h0"/>
                    <path d="M194 91h0"/>
                    <rect x="150" y="80" width="44" height="22" rx="10" ry="10"/>
<text x="172" y="95">MAP</text>
                </g>
                <path d="M194 91h10"/>
                <path d="M204 91h10"/>
                <g>
                    <path d="M214 91h0"/>
                    <path d="M242 91h0"/>
                    <rect x="214" y="80" width="28" height="22" rx="10" ry="10"/>
<text x="228" y="95">&lt;</text>
                </g>
                <path d="M242 91h10"/>
                <path d="M252 91h10"/>
                <g>
                    <a xlink:href="#dataType">
                        <path d="M262 91h0"/>
                        <path d="M346 91h0"/>
                        <rect x="262" y="80" width="84" height="22"/>
<text x="304" y="95">dataType</text>
                    </a>
                </g>
                <path d="M346 91h10"/>
                <path d="M356 91h10"/>
                <g>
                    <path d="M366 91h0"/>
                    <path d="M394 91h0"/>
                    <rect x="366" y="80" width="28" height="22" rx="10" ry="10"/>
<text x="380" y="95">,</text>
                </g>
                <path d="M394 91h10"/>
                <path d="M404 91h10"/>
                <g>
                    <a xlink:href="#dataType">
                        <path d="M414 91h0"/>
                        <path d="M498 91h0"/>
                        <rect x="414" y="80" width="84" height="22"/>
<text x="456" y="95">dataType</text>
                    </a>
                </g>
                <path d="M498 91h10"/>
                <path d="M508 91h10"/>
                <g>
                    <path d="M518 91h0"/>
                    <path d="M546 91h0"/>
                    <rect x="518" y="80" width="28" height="22" rx="10" ry="10"/>
<text x="532" y="95">&gt;</text>
                </g>
                <path d="M546 91h10"/>
            </g>
            <path d="M636 91a10 10 0 0 0 10 -10v-40a10 10 0 0 1 10 -10"/>
            <path d="M40 31a10 10 0 0 1 10 10v80a10 10 0 0 0 10 10"/>
            <g>
                <path d="M60 131h0"/>
                <path d="M636 131h0"/>
                <path d="M60 131h10"/>
                <g>
                    <path d="M70 131h0"/>
                    <path d="M138 131h0"/>
                    <rect x="70" y="120" width="68" height="22" rx="10" ry="10"/>
<text x="104" y="135">STRUCT</text>
                </g>
                <path d="M138 131h10"/>
                <g>
                    <path d="M148 131h0"/>
                    <path d="M636 131h0"/>
                    <path d="M148 131h20"/>
                    <g>
                        <path d="M168 131h0"/>
                        <path d="M616 131h0"/>
                        <path d="M168 131h10"/>
                        <g>
                            <path d="M178 131h0"/>
                            <path d="M206 131h0"/>
                            <rect x="178" y="120" width="28" height="22" rx="10" ry="10"/>
<text x="192" y="135">&lt;</text>
                        </g>
                        <path d="M206 131h10"/>
                        <g>
                            <path d="M216 131h0"/>
                            <path d="M568 131h0"/>
                            <path d="M216 131a10 10 0 0 0 10 -10v0a10 10 0 0 1 10 -10"/>
                            <g>
                                <path d="M236 111h312"/>
                            </g>
                            <path d="M548 111a10 10 0 0 1 10 10v0a10 10 0 0 0 10 10"/>
                            <path d="M216 131h20"/>
                            <g>
                                <path d="M236 131h0"/>
                                <path d="M548 131h0"/>
                                <path d="M236 131h10"/>
                                <g>
                                    <path d="M246 131h0"/>
                                    <path d="M538 131h0"/>
                                    <path d="M246 131h10"/>
                                    <g>
                                        <path d="M256 131h0"/>
                                        <path d="M528 131h0"/>
                                        <path d="M256 131h10"/>
                                        <g>
                                            <a xlink:href="#identifier">
                                                <path d="M266 131h0"/>
                                                <path d="M366 131h0"/>
                                                <rect x="266" y="120" width="100" height="22"/>
<text x="316" y="135">identifier</text>
                                            </a>
                                        </g>
                                        <path d="M366 131h10"/>
                                        <path d="M376 131h10"/>
                                        <g>
                                            <path d="M386 131h0"/>
                                            <path d="M414 131h0"/>
                                            <rect x="386" y="120" width="28" height="22" rx="10" ry="10"/>
<text x="400" y="135">:</text>
                                        </g>
                                        <path d="M414 131h10"/>
                                        <path d="M424 131h10"/>
                                        <g>
                                            <a xlink:href="#dataType">
                                                <path d="M434 131h0"/>
                                                <path d="M518 131h0"/>
                                                <rect x="434" y="120" width="84" height="22"/>
<text x="476" y="135">dataType</text>
                                            </a>
                                        </g>
                                        <path d="M518 131h10"/>
                                    </g>
                                    <path d="M528 131h10"/>
                                    <path d="M256 131a10 10 0 0 0 -10 10v10a10 10 0 0 0 10 10"/>
                                    <g>
                                        <path d="M256 161h112"/>
                                        <path d="M416 161h112"/>
                                        <path d="M368 161h10"/>
                                        <g>
                                            <path d="M378 161h0"/>
                                            <path d="M406 161h0"/>
                                            <rect x="378" y="150" width="28" height="22" rx="10" ry="10"/>
<text x="392" y="165">,</text>
                                        </g>
                                        <path d="M406 161h10"/>
                                    </g>
                                    <path d="M528 161a10 10 0 0 0 10 -10v-10a10 10 0 0 0 -10 -10"/>
                                </g>
                                <path d="M538 131h10"/>
                            </g>
                            <path d="M548 131h20"/>
                        </g>
                        <path d="M568 131h10"/>
                        <g>
                            <path d="M578 131h0"/>
                            <path d="M606 131h0"/>
                            <rect x="578" y="120" width="28" height="22" rx="10" ry="10"/>
<text x="592" y="135">&gt;</text>
                        </g>
                        <path d="M606 131h10"/>
                    </g>
                    <path d="M616 131h20"/>
                    <path d="M148 131a10 10 0 0 1 10 10v40a10 10 0 0 0 10 10"/>
                    <g>
                        <path d="M168 191h206"/>
                        <path d="M410 191h206"/>
                        <rect x="374" y="180" width="36" height="22" rx="10" ry="10"/>
<text x="392" y="195">&lt;&gt;</text>
                    </g>
                    <path d="M616 191a10 10 0 0 0 10 -10v-40a10 10 0 0 1 10 -10"/>
                </g>
            </g>
            <path d="M636 131a10 10 0 0 0 10 -10v-80a10 10 0 0 1 10 -10"/>
        </g>
        <path d="M 656 31 h 20 m -10 -10 v 20 m 10 -20 v 20"/>
    </g>
</svg>
