<?xml version="1.0" standalone="no"?>
<!DOCTYPE svg PUBLIC "-//W3C//DTD SVG 1.1//EN"
  "http://www.w3.org/Graphics/SVG/1.1/DTD/svg11.dtd">

<svg xmlns="http://www.w3.org/2000/svg" version="1.1" class="railroad-diagram"  width="478" height="72" viewBox="0 0 478 72"  xmlns:xlink="http://www.w3.org/1999/xlink">
    <defs>
        <style type="text/css"><![CDATA[ svg.railroad-diagram {
  background-color: #ffffff;
}
svg.railroad-diagram path {
  stroke-width: 2;
  stroke: #5a6872;
  fill: none;
}
svg.railroad-diagram text {
  font-size: 14px;
  font-family: 'ibm-plex-mono', 'Menlo', 'DejaVu Sans Mono', 'Bitstream Vera Sans Mono', Courier, monospace;
  color: #152935;
  text-anchor: middle;
  cursor: pointer;
}
svg.railroad-diagram text.label {
  text-anchor: start;
}
svg.railroad-diagram text.comment {
  font-size: 12px;
}
svg.railroad-diagram rect {
  stroke-width: 2;
  stroke:  #5a6872;
  fill: #5aaafa;
}
 ]]></style>
    </defs>
    
<g transform="translate(.5 .5)">
        <path d="M 20 31 v 20 m 10 -20 v 20 m -10 -10 h 20.5"/>
        <g>
            <path d="M40 41h0"/>
            <path d="M528 41h0"/>
            <path d="M40 41h10"/>
            <g>
                <path d="M50 41h0"/>
                <path d="M102 41h0"/>
                <rect x="50" y="30" width="52" height="22" rx="10" ry="10"/>
<text x="76" y="45">DROP</text>
            </g>
            <path d="M102 41h10"/>
            <path d="M112 41h10"/>
            <g>
                <path d="M122 41h0"/>
                <path d="M174 41h0"/>
                <rect x="122" y="30" width="52" height="22" rx="10" ry="10"/>
<text x="148" y="45">VIEW</text>
            </g>
            <path d="M174 41h10"/>
            <g>
                <path d="M184 41h0"/>
                <path d="M368 41h0"/>
                <path d="M184 41a10 10 0 0 0 10 -10v0a10 10 0 0 1 10 -10"/>
                <g>
                    <path d="M204 21h144"/>
                </g>
                <path d="M348 21a10 10 0 0 1 10 10v0a10 10 0 0 0 10 10"/>
                <path d="M184 41h20"/>
                <g>
                    <path d="M204 41h0"/>
                    <path d="M348 41h0"/>
                    <path d="M204 41h10"/>
                    <g>
                        <path d="M214 41h0"/>
                        <path d="M250 41h0"/>
                        <rect x="214" y="30" width="36" height="22" rx="10" ry="10"/>
<text x="232" y="45">IF</text>
                    </g>
                    <path d="M250 41h10"/>
                    <path d="M260 41h10"/>
                    <g>
                        <path d="M270 41h0"/>
                        <path d="M338 41h0"/>
                        <rect x="270" y="30" width="68" height="22" rx="10" ry="10"/>
<text x="304" y="45">EXISTS</text>
                    </g>
                    <path d="M338 41h10"/>
                </g>
                <path d="M348 41h20"/>
            </g>
            <path d="M368 41h10"/>
            <g>
                <a xlink:href="#tableIdentifier">
                    <path d="M378 41h0"/>
                    <path d="M518 41h0"/>
                    <rect x="378" y="30" width="140" height="22"/>
<text x="448" y="45">tableIdentifier</text>
                </a>
            </g>
            <path d="M518 41h10"/>
        </g>
        <path d="M 528 41 h 20 m -10 -10 v 20 m 10 -20 v 20"/>
    </g>
</svg>
