<?xml version="1.0" standalone="no"?>
<!DOCTYPE svg PUBLIC "-//W3C//DTD SVG 1.1//EN"
  "http://www.w3.org/Graphics/SVG/1.1/DTD/svg11.dtd">

<svg xmlns="http://www.w3.org/2000/svg" version="1.1" class="railroad-diagram"  width="949" height="303" viewBox="0 0 949 303"  xmlns:xlink="http://www.w3.org/1999/xlink">
    <defs>
        <style type="text/css"><![CDATA[ svg.railroad-diagram {
  background-color: #ffffff;
}
svg.railroad-diagram path {
  stroke-width: 2;
  stroke: #5a6872;
  fill: none;
}
svg.railroad-diagram text {
  font-size: 14px;
  font-family: 'ibm-plex-mono', 'Menlo', 'DejaVu Sans Mono', 'Bitstream Vera Sans Mono', Courier, monospace;
  color: #152935;
  text-anchor: middle;
  cursor: pointer;
}
svg.railroad-diagram text.label {
  text-anchor: start;
}
svg.railroad-diagram text.comment {
  font-size: 12px;
}
svg.railroad-diagram rect {
  stroke-width: 2;
  stroke:  #5a6872;
  fill: #5aaafa;
}
 ]]></style>
    </defs>
    
<g transform="translate(.5 .5)">
        <path d="M 20 31 v 20 m 10 -20 v 20 m -10 -10 h 20.5"/>
        <g>
            <path d="M40 41h0"/>
            <path d="M952 41h0"/>
            <path d="M40 41h10"/>
            <g>
                <path d="M50 41h0"/>
                <path d="M110 41h0"/>
                <rect x="50" y="30" width="60" height="22" rx="10" ry="10"/>
<text x="111" y="49">GROUP</text>
            </g>
            <path d="M110 41h10"/>
            <path d="M120 41h10"/>
            <g>
                <path d="M130 41h0"/>
                <path d="M166 41h0"/>
                <rect x="130" y="30" width="36" height="22" rx="10" ry="10"/>
<text x="179" y="49">BY</text>
            </g>
            <path d="M166 41h10"/>
            <path d="M176 41h10"/>
            <g>
                <path d="M186 41h0"/>
                <path d="M326 41h0"/>
                <path d="M186 41h10"/>
                <g>
                    <path d="M196 41h0"/>
                    <path d="M316 41h0"/>
                    <path d="M196 41h10"/>
                    <g>
                        <a xlink:href="#expression">
                            <path d="M206 41h0"/>
                            <path d="M306 41h0"/>
                            <rect x="206" y="30" width="100" height="22"/>
<text x="287" y="49">expression</text>
                        </a>
                    </g>
                    <path d="M306 41h10"/>
                </g>
                <path d="M316 41h10"/>
                <path d="M196 41a10 10 0 0 0 -10 10v10a10 10 0 0 0 10 10"/>
                <g>
                    <path d="M196 71h36"/>
                    <path d="M280 71h36"/>
                    <path d="M232 71h10"/>
                    <g>
                        <path d="M242 71h0"/>
                        <path d="M270 71h0"/>
                        <rect x="242" y="60" width="28" height="22" rx="10" ry="10"/>
<text x="287" y="79">,</text>
                    </g>
                    <path d="M270 71h10"/>
                </g>
                <path d="M316 71a10 10 0 0 0 10 -10v-10a10 10 0 0 0 -10 -10"/>
            </g>
            <path d="M326 41h10"/>
            <path d="M336 41h10"/>
            <g>
                <path d="M346 41h0"/>
                <path d="M422 41h0"/>
                <rect x="346" y="30" width="76" height="22" rx="10" ry="10"/>
<text x="415" y="49">@break@</text>
            </g>
            <path d="M422 41h10"/>
            <g>
                <path d="M432 41h0"/>
                <path d="M952 41h0"/>
                <path d="M432 41a10 10 0 0 0 10 -10v0a10 10 0 0 1 10 -10"/>
                <g>
                    <path d="M452 21h480"/>
                </g>
                <path d="M932 21a10 10 0 0 1 10 10v0a10 10 0 0 0 10 10"/>
                <path d="M432 41h20"/>
                <g>
                    <path d="M452 41h0"/>
                    <path d="M932 41h0"/>
                    <path d="M452 41h20"/>
                    <g>
                        <path d="M472 41h140"/>
                        <path d="M772 41h140"/>
                        <path d="M612 41h10"/>
                        <g>
                            <path d="M622 41h0"/>
                            <path d="M674 41h0"/>
                            <rect x="622" y="30" width="52" height="22" rx="10" ry="10"/>
<text x="679" y="49">WITH</text>
                        </g>
                        <path d="M674 41h10"/>
                        <path d="M684 41h10"/>
                        <g>
                            <path d="M694 41h0"/>
                            <path d="M762 41h0"/>
                            <rect x="694" y="30" width="68" height="22" rx="10" ry="10"/>
<text x="759" y="49">ROLLUP</text>
                        </g>
                        <path d="M762 41h10"/>
                    </g>
                    <path d="M912 41h20"/>
                    <path d="M452 41a10 10 0 0 1 10 10v10a10 10 0 0 0 10 10"/>
                    <g>
                        <path d="M472 71h148"/>
                        <path d="M764 71h148"/>
                        <path d="M620 71h10"/>
                        <g>
                            <path d="M630 71h0"/>
                            <path d="M682 71h0"/>
                            <rect x="630" y="60" width="52" height="22" rx="10" ry="10"/>
<text x="687" y="79">WITH</text>
                        </g>
                        <path d="M682 71h10"/>
                        <path d="M692 71h10"/>
                        <g>
                            <path d="M702 71h0"/>
                            <path d="M754 71h0"/>
                            <rect x="702" y="60" width="52" height="22" rx="10" ry="10"/>
<text x="759" y="79">CUBE</text>
                        </g>
                        <path d="M754 71h10"/>
                    </g>
                    <path d="M912 71a10 10 0 0 0 10 -10v-10a10 10 0 0 1 10 -10"/>
                    <path d="M452 41a10 10 0 0 1 10 10v40a10 10 0 0 0 10 10"/>
                    <g>
                        <path d="M472 101h0"/>
                        <path d="M912 101h0"/>
                        <path d="M472 101h10"/>
                        <g>
                            <path d="M482 101h0"/>
                            <path d="M566 101h0"/>
                            <rect x="482" y="90" width="84" height="22" rx="10" ry="10"/>
<text x="555" y="109">GROUPING</text>
                        </g>
                        <path d="M566 101h10"/>
                        <path d="M576 101h10"/>
                        <g>
                            <path d="M586 101h0"/>
                            <path d="M638 101h0"/>
                            <rect x="586" y="90" width="52" height="22" rx="10" ry="10"/>
<text x="643" y="109">SETS</text>
                        </g>
                        <path d="M638 101h10"/>
                        <path d="M648 101h10"/>
                        <g>
                            <path d="M658 101h0"/>
                            <path d="M686 101h0"/>
                            <rect x="658" y="90" width="28" height="22" rx="10" ry="10"/>
<text x="703" y="109">(</text>
                        </g>
                        <path d="M686 101h10"/>
                        <path d="M696 101h10"/>
                        <g>
                            <path d="M706 101h0"/>
                            <path d="M854 101h0"/>
                            <path d="M706 101h10"/>
                            <g>
                                <path d="M716 101h0"/>
                                <path d="M844 101h0"/>
                                <path d="M716 101h10"/>
                                <g>
                                    <a xlink:href="#groupingSet">
                                        <path d="M726 101h0"/>
                                        <path d="M834 101h0"/>
                                        <rect x="726" y="90" width="108" height="22"/>
<text x="811" y="109">groupingSet</text>
                                    </a>
                                </g>
                                <path d="M834 101h10"/>
                            </g>
                            <path d="M844 101h10"/>
                            <path d="M716 101a10 10 0 0 0 -10 10v10a10 10 0 0 0 10 10"/>
                            <g>
                                <path d="M716 131h40"/>
                                <path d="M804 131h40"/>
                                <path d="M756 131h10"/>
                                <g>
                                    <path d="M766 131h0"/>
                                    <path d="M794 131h0"/>
                                    <rect x="766" y="120" width="28" height="22" rx="10" ry="10"/>
<text x="811" y="139">,</text>
                                </g>
                                <path d="M794 131h10"/>
                            </g>
                            <path d="M844 131a10 10 0 0 0 10 -10v-10a10 10 0 0 0 -10 -10"/>
                        </g>
                        <path d="M854 101h10"/>
                        <path d="M864 101h10"/>
                        <g>
                            <path d="M874 101h0"/>
                            <path d="M902 101h0"/>
                            <rect x="874" y="90" width="28" height="22" rx="10" ry="10"/>
<text x="919" y="109">)</text>
                        </g>
                        <path d="M902 101h10"/>
                    </g>
                    <path d="M912 101a10 10 0 0 0 10 -10v-40a10 10 0 0 1 10 -10"/>
                </g>
                <path d="M932 41h20"/>
            </g>
        </g>
        <path d="M 952 41 h 20 m -10 -10 v 20 m 10 -20 v 20"/>
    </g>
</svg>
