<?xml version="1.0" standalone="no"?>
<!DOCTYPE svg PUBLIC "-//W3C//DTD SVG 1.1//EN"
  "http://www.w3.org/Graphics/SVG/1.1/DTD/svg11.dtd">

<svg xmlns="http://www.w3.org/2000/svg" version="1.1" class="railroad-diagram"  width="487" height="267" viewBox="0 0 487 267"  xmlns:xlink="http://www.w3.org/1999/xlink">
    <defs>
        <style type="text/css"><![CDATA[ svg.railroad-diagram {
  background-color: #ffffff;
}
svg.railroad-diagram path {
  stroke-width: 2;
  stroke: #5a6872;
  fill: none;
}
svg.railroad-diagram text {
  font-size: 14px;
  font-family: 'ibm-plex-mono', 'Menlo', 'DejaVu Sans Mono', 'Bitstream Vera Sans Mono', Courier, monospace;
  color: #152935;
  text-anchor: middle;
  cursor: pointer;
}
svg.railroad-diagram text.label {
  text-anchor: start;
}
svg.railroad-diagram text.comment {
  font-size: 12px;
}
svg.railroad-diagram rect {
  stroke-width: 2;
  stroke:  #5a6872;
  fill: #5aaafa;
}
 ]]></style>
    </defs>
    
<g transform="translate(.5 .5)">
<path d="M20 31  v 20 m 10 -20 v 20 m -10 -10 h 20.5"/>
<g>
<path d="M40 41 h0"/>
<path d="M888 41 h0"/>
<path d="M40 41 h10"/>
<g>
<a xlink:href="#joinType">
<path d="M50 41 h0"/>
<path d="M134 41 h0"/>
<rect x="50" y="30" width="84" height="22" />
<text x="92" y="45">joinType</text>
</a>
</g>
<path d="M134 41 h10"/>
<path d="M144 41 h10"/>
<g>
<path d="M154 41 h0"/>
<path d="M206 41 h0"/>
<rect x="154" y="30" width="52" height="22" />
<text x="180" y="45">JOIN</text>
</g>
<path d="M206 41 h10"/>
<path d="M216 41 h10"/>
<g>
<a xlink:href="#relationPrimary">
<path d="M226 41 h0"/>
<path d="M366 41 h0"/>
<rect x="226" y="30" width="140" height="22" />
<text x="296" y="45">relationPrimary</text>
</a>
</g>
<path d="M366 41 h10"/>
<path d="M376 41 h10"/>
<g id="eol">
<path d="M386 41 h0"/>
<path d="M386 41 a 10 10 0 0 1 10 10 V 60 a 10 10 0 0 1 -10 10 h -355 a 10 10 0 0 0 -10 10 V 105 a 10 10 0 0 0 10 10"/>
<path d="M386 41 h0"/>
<path d="M386 41 h0"/>
</g>
<path d="M31 115 h10"/>
<g>
<path d="M41 115 h0"/>
<path d="M457 115 h0"/>
<path d="M41 115 a10 10 0 0 0 10 -10v0a10 10 0 0 1 10 -10"/>
<g>
<path d="M61 95 h376"/>
</g>
<path d="M437 95 a10 10 0 0 1 10 10v0a10 10 0 0 0 10 10"/>
<path d="M41 115 h20"/>
<g>
<path d="M61 115 h0"/>
<path d="M437 115 h0"/>
<path d="M61 115 h20"/>
<g>
<path d="M81 115 h52"/>
<path d="M365 115 h52"/>
<path d="M133 115 h10"/>
<g>
<path d="M143 115 h0"/>
<path d="M179 115 h0"/>
<rect x="143" y="104" width="36" height="22" />
<text x="161" y="119">ON</text>
</g>
<path d="M179 115 h10"/>
<path d="M189 115 h10"/>
<g>
<a xlink:href="#booleanExpression">
<path d="M199 115 h0"/>
<path d="M355 115 h0"/>
<rect x="199" y="104" width="156" height="22" />
<text x="277" y="119">booleanExpression</text>
</a>
</g>
<path d="M355 115 h10"/>
</g>
<path d="M417 115 h20"/>
<path d="M61 115 a10 10 0 0 1 10 10v10a10 10 0 0 0 10 10"/>
<g>
<path d="M81 145 h0"/>
<path d="M417 145 h0"/>
<path d="M81 145 h10"/>
<g>
<path d="M91 145 h0"/>
<path d="M151 145 h0"/>
<rect x="91" y="134" width="60" height="22" />
<text x="121" y="149">USING</text>
</g>
<path d="M151 145 h10"/>
<path d="M161 145 h10"/>
<g>
<path d="M171 145 h0"/>
<path d="M199 145 h0"/>
<rect x="171" y="134" width="28" height="22" />
<text x="185" y="149">(</text>
</g>
<path d="M199 145 h10"/>
<path d="M209 145 h10"/>
<g>
<path d="M219 145 h0"/>
<path d="M359 145 h0"/>
<path d="M219 145 h10"/>
<g>
<path d="M229 145 h0"/>
<path d="M349 145 h0"/>
<path d="M229 145 h10"/>
<g>
<a xlink:href="#identifier">
<path d="M239 145 h0"/>
<path d="M339 145 h0"/>
<rect x="239" y="134" width="100" height="22" />
<text x="289" y="149">identifier</text>
</a>
</g>
<path d="M339 145 h10"/>
</g>
<path d="M349 145 h10"/>
<path d="M229 145 a10 10 0 0 0 -10 10v10a10 10 0 0 0 10 10"/>
<g>
<path d="M229 175 h36"/>
<path d="M313 175 h36"/>
<path d="M265 175 h10"/>
<g>
<path d="M275 175 h0"/>
<path d="M303 175 h0"/>
<rect x="275" y="164" width="28" height="22" />
<text x="289" y="179">,</text>
</g>
<path d="M303 175 h10"/>
</g>
<path d="M349 175 a10 10 0 0 0 10 -10v-10a10 10 0 0 0 -10 -10"/>
</g>
<path d="M359 145 h10"/>
<path d="M369 145 h10"/>
<g>
<path d="M379 145 h0"/>
<path d="M407 145 h0"/>
<rect x="379" y="134" width="28" height="22" />
<text x="393" y="149">)</text>
</g>
<path d="M407 145 h10"/>
</g>
<path d="M417 145 a10 10 0 0 0 10 -10v-10a10 10 0 0 1 10 -10"/>
</g>
<path d="M437 115 h20"/>
</g>
</g>
<path d="M457 115  h 20 m -10 -10 v 20 m 10 -20 v 20"/>
</g>
</svg>
