<?xml version="1.0" standalone="no"?>
<!DOCTYPE svg PUBLIC "-//W3C//DTD SVG 1.1//EN"
  "http://www.w3.org/Graphics/SVG/1.1/DTD/svg11.dtd">

<svg xmlns="http://www.w3.org/2000/svg" version="1.1" class="railroad-diagram"  viewBox="0 0 326 92"  xmlns:xlink="http://www.w3.org/1999/xlink" preserveAspectRatio="xMinYMin meet">
    <defs>
        <style type="text/css"><![CDATA[ svg.railroad-diagram {
  background-color: #ffffff;
}
svg.railroad-diagram path {
  stroke-width: 2;
  stroke: #5a6872;
  fill: none;
}
svg.railroad-diagram text {
  font-size: 14px;
  font-family: 'ibm-plex-mono', 'Menlo', 'DejaVu Sans Mono', 'Bitstream Vera Sans Mono', Courier, monospace;
  color: #152935;
  text-anchor: middle;
  cursor: pointer;
}
svg.railroad-diagram text.label {
  text-anchor: start;
}
svg.railroad-diagram text.comment {
  font-size: 12px;
}
svg.railroad-diagram rect {
  stroke-width: 2;
  stroke:  #5a6872;
  fill: #5aaafa;
}
 ]]></style>
    </defs>
    
<g transform="translate(.5 .5)">
<path d="M 20 21 v 20 m 10 -20 v 20 m -10 -10 h 20.5"/>
<g>
<path d="M40 31h0"/>
<path d="M296 31h0"/>
<path d="M40 31h10"/>
<g>
<path d="M50 31h0"/>
<path d="M118 31h0"/>
<rect x="50" y="20" width="68" height="22" rx="10" ry="10"/>
<text x="84" y="35">WINDOW</text>
</g>
<path d="M118 31h10"/>
<path d="M128 31h10"/>
<g>
<path d="M138 31h0"/>
<path d="M286 31h0"/>
<path d="M138 31h10"/>
<g>
<path d="M148 31h0"/>
<path d="M276 31h0"/>
<path d="M148 31h10"/>
<g>
<a xlink:href="/docs/sql-query?topic=sql-query-sql-reference#namedWindow" target="_top">
<path d="M158 31h0"/>
<path d="M266 31h0"/>
<rect x="158" y="20" width="108" height="22"/>
<text x="212" y="35">namedWindow</text>
</a>
</g>
<path d="M266 31h10"/>
</g>
<path d="M276 31h10"/>
<path d="M148 31a10 10 0 0 0 -10 10v10a10 10 0 0 0 10 10"/>
<g>
<path d="M148 61h40"/>
<path d="M236 61h40"/>
<path d="M188 61h10"/>
<g>
<path d="M198 61h0"/>
<path d="M226 61h0"/>
<rect x="198" y="50" width="28" height="22" rx="10" ry="10"/>
<text x="212" y="65">,</text>
</g>
<path d="M226 61h10"/>
</g>
<path d="M276 61a10 10 0 0 0 10 -10v-10a10 10 0 0 0 -10 -10"/>
</g>
<path d="M286 31h10"/>
</g>
<path d="M 296 31 h 20 m -10 -10 v 20 m 10 -20 v 20"/>
</g>
</svg>
