<?xml version="1.0" standalone="no"?>
<!DOCTYPE svg PUBLIC "-//W3C//DTD SVG 1.1//EN"
  "http://www.w3.org/Graphics/SVG/1.1/DTD/svg11.dtd">

<svg xmlns="http://www.w3.org/2000/svg" version="1.1" class="railroad-diagram" width="553" height="401" viewBox="0 0 553 401" xmlns:xlink="http://www.w3.org/1999/xlink">

    <defs>
        <style type="text/css"><![CDATA[ svg.railroad-diagram {
  background-color: #ffffff;
}
svg.railroad-diagram path {
  stroke-width: 2;
  stroke: #5a6872;
  fill: none;
}
svg.railroad-diagram text {
  font-size: 14px;
  font-family: 'ibm-plex-mono', 'Menlo', 'DejaVu Sans Mono', 'Bitstream Vera Sans Mono', Courier, monospace;
  color: #152935;
  text-anchor: middle;
  cursor: pointer;
}
svg.railroad-diagram text.label {
  text-anchor: start;
}
svg.railroad-diagram text.comment {
  font-size: 12px;
}
svg.railroad-diagram rect {
  stroke-width: 2;
  stroke:  #5a6872;
  fill: #5aaafa;
}
 ]]></style>
    </defs>
    
<g transform="translate(.5 .5)">
<path d="M 20 21 v 20 m 10 -20 v 20 m -10 -10 h 20.5"/>
<g>
<path d="M40 31h0"/>
<path d="M512 31h0"/>
<path d="M40 31h20"/>
<g>
<a xlink:href="#caseExpression">
<path d="M60 31h150"/>
<path d="M342 31h150"/>
<rect x="210" y="20" width="132" height="22"/>
<text x="276" y="35">caseExpression</text>
</a>
</g>
<path d="M492 31h20"/>
<path d="M40 31a10 10 0 0 1 10 10v10a10 10 0 0 0 10 10"/>
<g>
<a xlink:href="#castExpression">
<path d="M60 61h150"/>
<path d="M342 61h150"/>
<rect x="210" y="50" width="132" height="22"/>
<text x="276" y="65">castExpression</text>
</a>
</g>
<path d="M492 61a10 10 0 0 0 10 -10v-10a10 10 0 0 1 10 -10"/>
<path d="M40 31a10 10 0 0 1 10 10v40a10 10 0 0 0 10 10"/>
<g>
<a xlink:href="#constant">
<path d="M60 91h174"/>
<path d="M318 91h174"/>
<rect x="234" y="80" width="84" height="22"/>
<text x="276" y="95">constant</text>
</a>
</g>
<path d="M492 91a10 10 0 0 0 10 -10v-40a10 10 0 0 1 10 -10"/>
<path d="M40 31a10 10 0 0 1 10 10v70a10 10 0 0 0 10 10"/>
<g>
<a xlink:href="#columnReference">
<path d="M60 121h146"/>
<path d="M346 121h146"/>
<rect x="206" y="110" width="140" height="22"/>
<text x="276" y="125">columnReference</text>
</a>
</g>
<path d="M492 121a10 10 0 0 0 10 -10v-70a10 10 0 0 1 10 -10"/>
<path d="M40 31a10 10 0 0 1 10 10v100a10 10 0 0 0 10 10"/>
<g>
<path d="M60 151h4"/>
<path d="M488 151h4"/>
<path d="M64 151h10"/>
<g>
<path d="M74 151h0"/>
<path d="M102 151h0"/>
<rect x="74" y="140" width="28" height="22" rx="10" ry="10"/>
<text x="88" y="155">(</text>
</g>
<path d="M102 151h10"/>
<path d="M112 151h10"/>
<g>
<a xlink:href="#expression">
<path d="M122 151h0"/>
<path d="M222 151h0"/>
<rect x="122" y="140" width="100" height="22"/>
<text x="172" y="155">expression</text>
</a>
</g>
<path d="M222 151h10"/>
<path d="M232 151h10"/>
<g>
<path d="M242 151h0"/>
<path d="M430 151h0"/>
<path d="M242 151h10"/>
<g>
<path d="M252 151h0"/>
<path d="M420 151h0"/>
<path d="M252 151h10"/>
<g>
<path d="M262 151h0"/>
<path d="M290 151h0"/>
<rect x="262" y="140" width="28" height="22" rx="10" ry="10"/>
<text x="276" y="155">,</text>
</g>
<path d="M290 151h10"/>
<path d="M300 151h10"/>
<g>
<a xlink:href="#expression">
<path d="M310 151h0"/>
<path d="M410 151h0"/>
<rect x="310" y="140" width="100" height="22"/>
<text x="360" y="155">expression</text>
</a>
</g>
<path d="M410 151h10"/>
</g>
<path d="M420 151h10"/>
<path d="M252 151a10 10 0 0 0 -10 10v0a10 10 0 0 0 10 10"/>
<g>
<path d="M252 171h168"/>
</g>
<path d="M420 171a10 10 0 0 0 10 -10v0a10 10 0 0 0 -10 -10"/>
</g>
<path d="M430 151h10"/>
<path d="M440 151h10"/>
<g>
<path d="M450 151h0"/>
<path d="M478 151h0"/>
<rect x="450" y="140" width="28" height="22" rx="10" ry="10"/>
<text x="464" y="155">)</text>
</g>
<path d="M478 151h10"/>
</g>
<path d="M492 151a10 10 0 0 0 10 -10v-100a10 10 0 0 1 10 -10"/>
<path d="M40 31a10 10 0 0 1 10 10v139a10 10 0 0 0 10 10"/>
<g>
<path d="M60 190h128"/>
<path d="M364 190h128"/>
<path d="M188 190h10"/>
<g>
<path d="M198 190h0"/>
<path d="M226 190h0"/>
<rect x="198" y="179" width="28" height="22" rx="10" ry="10"/>
<text x="212" y="194">(</text>
</g>
<path d="M226 190h10"/>
<path d="M236 190h10"/>
<g>
<a xlink:href="#query">
<path d="M246 190h0"/>
<path d="M306 190h0"/>
<rect x="246" y="179" width="60" height="22"/>
<text x="276" y="194">query</text>
</a>
</g>
<path d="M306 190h10"/>
<path d="M316 190h10"/>
<g>
<path d="M326 190h0"/>
<path d="M354 190h0"/>
<rect x="326" y="179" width="28" height="22" rx="10" ry="10"/>
<text x="340" y="194">)</text>
</g>
<path d="M354 190h10"/>
</g>
<path d="M492 190a10 10 0 0 0 10 -10v-139a10 10 0 0 1 10 -10"/>
<path d="M40 31a10 10 0 0 1 10 10v169a10 10 0 0 0 10 10"/>
<g>
<a xlink:href="#functionOrAggregate">
<path d="M60 220h130"/>
<path d="M362 220h130"/>
<rect x="190" y="209" width="172" height="22"/>
<text x="276" y="224">functionOrAggregate</text>
</a>
</g>
<path d="M492 220a10 10 0 0 0 10 -10v-169a10 10 0 0 1 10 -10"/>
<path d="M40 31a10 10 0 0 1 10 10v199a10 10 0 0 0 10 10"/>
<g>
<path d="M60 250h0"/>
<path d="M492 250h0"/>
<path d="M60 250h10"/>
<g>
<a xlink:href="#primaryExpression">
<path d="M70 250h0"/>
<path d="M226 250h0"/>
<rect x="70" y="239" width="156" height="22"/>
<text x="148" y="254">primaryExpression</text>
</a>
</g>
<path d="M226 250h10"/>
<path d="M236 250h10"/>
<g>
<path d="M246 250h0"/>
<path d="M274 250h0"/>
<rect x="246" y="239" width="28" height="22" rx="10" ry="10"/>
<text x="260" y="254">[</text>
</g>
<path d="M274 250h10"/>
<path d="M284 250h10"/>
<g>
<a xlink:href="#valueExpression">
<path d="M294 250h0"/>
<path d="M434 250h0"/>
<rect x="294" y="239" width="140" height="22"/>
<text x="364" y="254">valueExpression</text>
</a>
</g>
<path d="M434 250h10"/>
<path d="M444 250h10"/>
<g>
<path d="M454 250h0"/>
<path d="M482 250h0"/>
<rect x="454" y="239" width="28" height="22" rx="10" ry="10"/>
<text x="468" y="254">]</text>
</g>
<path d="M482 250h10"/>
</g>
<path d="M492 250a10 10 0 0 0 10 -10v-199a10 10 0 0 1 10 -10"/>
<path d="M40 31a10 10 0 0 1 10 10v229a10 10 0 0 0 10 10"/>
<g>
<path d="M60 280h44"/>
<path d="M448 280h44"/>
<path d="M104 280h10"/>
<g>
<a xlink:href="#primaryExpression">
<path d="M114 280h0"/>
<path d="M270 280h0"/>
<rect x="114" y="269" width="156" height="22"/>
<text x="192" y="284">primaryExpression</text>
</a>
</g>
<path d="M270 280h10"/>
<path d="M280 280h10"/>
<g>
<path d="M290 280h0"/>
<path d="M318 280h0"/>
<rect x="290" y="269" width="28" height="22" rx="10" ry="10"/>
<text x="304" y="284">.</text>
</g>
<path d="M318 280h10"/>
<path d="M328 280h10"/>
<g>
<a xlink:href="#identifier">
<path d="M338 280h0"/>
<path d="M438 280h0"/>
<rect x="338" y="269" width="100" height="22"/>
<text x="388" y="284">identifier</text>
</a>
</g>
<path d="M438 280h10"/>
</g>
<path d="M492 280a10 10 0 0 0 10 -10v-229a10 10 0 0 1 10 -10"/>
<path d="M40 31a10 10 0 0 1 10 10v259a10 10 0 0 0 10 10"/>
<g>
<path d="M60 310h108"/>
<path d="M384 310h108"/>
<path d="M168 310h10"/>
<g>
<path d="M178 310h0"/>
<path d="M206 310h0"/>
<rect x="178" y="299" width="28" height="22" rx="10" ry="10"/>
<text x="192" y="314">(</text>
</g>
<path d="M206 310h10"/>
<path d="M216 310h10"/>
<g>
<a xlink:href="#expression">
<path d="M226 310h0"/>
<path d="M326 310h0"/>
<rect x="226" y="299" width="100" height="22"/>
<text x="276" y="314">expression</text>
</a>
</g>
<path d="M326 310h10"/>
<path d="M336 310h10"/>
<g>
<path d="M346 310h0"/>
<path d="M374 310h0"/>
<rect x="346" y="299" width="28" height="22" rx="10" ry="10"/>
<text x="360" y="314">)</text>
</g>
<path d="M374 310h10"/>
</g>
<path d="M492 310a10 10 0 0 0 10 -10v-259a10 10 0 0 1 10 -10"/>
<path d="M40 31a10 10 0 0 1 10 10v289a10 10 0 0 0 10 10"/>
<g>
<a xlink:href="#timeSeriesExpression">
<path d="M60 340h126"/>
<path d="M366 340h126"/>
<rect x="186" y="329" width="180" height="22"/>
<text x="276" y="344">timeSeriesExpression</text>
</a>
</g>
<path d="M492 340a10 10 0 0 0 10 -10v-289a10 10 0 0 1 10 -10"/>
<path d="M40 31a10 10 0 0 1 10 10v319a10 10 0 0 0 10 10"/>
<g>
<path d="M60 370h68"/>
<path d="M424 370h68"/>
<path d="M128 370h10"/>
<g>
<path d="M138 370h0"/>
<path d="M166 370h0"/>
<rect x="138" y="359" width="28" height="22" rx="10" ry="10"/>
<text x="152" y="374">(</text>
</g>
<path d="M166 370h10"/>
<path d="M176 370h10"/>
<g>
<a xlink:href="#timeSeriesExpression">
<path d="M186 370h0"/>
<path d="M366 370h0"/>
<rect x="186" y="359" width="180" height="22"/>
<text x="276" y="374">timeSeriesExpression</text>
</a>
</g>
<path d="M366 370h10"/>
<path d="M376 370h10"/>
<g>
<path d="M386 370h0"/>
<path d="M414 370h0"/>
<rect x="386" y="359" width="28" height="22" rx="10" ry="10"/>
<text x="400" y="374">)</text>
</g>
<path d="M414 370h10"/>
</g>
<path d="M492 370a10 10 0 0 0 10 -10v-319a10 10 0 0 1 10 -10"/>
</g>
<path d="M 512 31 h 20 m -10 -10 v 20 m 10 -20 v 20"/>
</g>
</svg>
