<?xml version="1.0" standalone="no"?>
<!DOCTYPE svg PUBLIC "-//W3C//DTD SVG 1.1//EN"
  "http://www.w3.org/Graphics/SVG/1.1/DTD/svg11.dtd">

<svg xmlns="http://www.w3.org/2000/svg" version="1.1" class="railroad-diagram"  viewBox="0 0 397 177"  xmlns:xlink="http://www.w3.org/1999/xlink" preserveAspectRatio="xMinYMin meet">
    <defs>
        <style type="text/css"><![CDATA[ svg.railroad-diagram {
  background-color: #ffffff;
}
svg.railroad-diagram path {
  stroke-width: 2;
  stroke: #5a6872;
  fill: none;
}
svg.railroad-diagram text {
  font-size: 14px;
  font-family: 'ibm-plex-mono', 'Menlo', 'DejaVu Sans Mono', 'Bitstream Vera Sans Mono', Courier, monospace;
  color: #152935;
  text-anchor: middle;
  cursor: pointer;
}
svg.railroad-diagram text.label {
  text-anchor: start;
}
svg.railroad-diagram text.comment {
  font-size: 12px;
}
svg.railroad-diagram rect {
  stroke-width: 2;
  stroke:  #5a6872;
  fill: #5aaafa;
}
 ]]></style>
    </defs>
    
<g transform="translate(.5 .5)">
<path d="M20 31  v 20 m 10 -20 v 20 m -10 -10 h 20.5"/>
<g>
<path d="M40 41 h0"/>
<path d="M668 41 h0"/>
<g>
<path d="M40 41 h0"/>
<path d="M312 41 h0"/>
<path d="M40 41 a10 10 0 0 0 10 -10v0a10 10 0 0 1 10 -10"/>
<g>
<path d="M60 21 h232"/>
</g>
<path d="M292 21 a10 10 0 0 1 10 10v0a10 10 0 0 0 10 10"/>
<path d="M40 41 h20"/>
<g>
<path d="M60 41 h0"/>
<path d="M292 41 h0"/>
<path d="M60 41 h10"/>
<g>
<path d="M70 41 h0"/>
<path d="M122 41 h0"/>
<rect x="70" y="30" width="52" height="22" />
<text x="96" y="45">WITH</text>
</g>
<path d="M122 41 h10"/>
<path d="M132 41 h10"/>
<g>
<path d="M142 41 h0"/>
<path d="M282 41 h0"/>
<path d="M142 41 h10"/>
<g>
<path d="M152 41 h0"/>
<path d="M272 41 h0"/>
<path d="M152 41 h10"/>
<g>
<a xlink:href="/docs/sql-query?topic=sql-query-sql-reference#namedQuery" target="_top">
<path d="M162 41 h0"/>
<path d="M262 41 h0"/>
<rect x="162" y="30" width="100" height="22" />
<text x="212" y="45">namedQuery</text>
</a>
</g>
<path d="M262 41 h10"/>
</g>
<path d="M272 41 h10"/>
<path d="M152 41 a10 10 0 0 0 -10 10v10a10 10 0 0 0 10 10"/>
<g>
<path d="M152 71 h36"/>
<path d="M236 71 h36"/>
<path d="M188 71 h10"/>
<g>
<path d="M198 71 h0"/>
<path d="M226 71 h0"/>
<rect x="198" y="60" width="28" height="22" />
<text x="212" y="75">,</text>
</g>
<path d="M226 71 h10"/>
</g>
<path d="M272 71 a10 10 0 0 0 10 -10v-10a10 10 0 0 0 -10 -10"/>
</g>
<path d="M282 41 h10"/>
</g>
<path d="M292 41 h20"/>
</g>
<path d="M312 41 h10"/>
<g id="eol">
<path d="M322 41 h0"/>
<path d="M322 41 a 10 10 0 0 1 10 10 V 90 a 10 10 0 0 1 -10 10 h -291 a 10 10 0 0 0 -10 10 V 135 a 10 10 0 0 0 10 10"/>
<path d="M322 41 h0"/>
<path d="M322 41 h0"/>
</g>
<path d="M31 145 h10"/>
<path d="M41 145 h10"/>
<g>
<a xlink:href="/docs/sql-query?topic=sql-query-sql-reference#fullselect" target="_top">
<path d="M51 145 h0"/>
<path d="M151 145 h0"/>
<rect x="51" y="134" width="100" height="22" />
<text x="101" y="149">fullselect</text>
</a>
</g>
<path d="M151 145 h10"/>
<g>
<path d="M161 145 h0"/>
<path d="M301 145 h0"/>
<path d="M161 145 a10 10 0 0 0 10 -10v0a10 10 0 0 1 10 -10"/>
<g>
<path d="M181 125 h100"/>
</g>
<path d="M281 125 a10 10 0 0 1 10 10v0a10 10 0 0 0 10 10"/>
<path d="M161 145 h20"/>
<g>
<a xlink:href="/docs/sql-query?topic=sql-query-sql-reference#intoClause" target="_top">
<path d="M181 145 h0"/>
<path d="M281 145 h0"/>
<rect x="181" y="134" width="100" height="22" />
<text x="231" y="149">intoClause</text>
</a>
</g>
<path d="M281 145 h20"/>
</g>
</g>
<path d="M301 145  h 20 m -10 -10 v 20 m 10 -20 v 20"/>
</g>
</svg>
