<?xml version="1.0" standalone="no"?>
<!DOCTYPE svg PUBLIC "-//W3C//DTD SVG 1.1//EN"
  "http://www.w3.org/Graphics/SVG/1.1/DTD/svg11.dtd">

<svg xmlns="http://www.w3.org/2000/svg" version="1.1" class="railroad-diagram"  width="594" height="451" viewBox="0 0 594 451"  xmlns:xlink="http://www.w3.org/1999/xlink">
    <defs>
        <style type="text/css"><![CDATA[ svg.railroad-diagram {
  background-color: #ffffff;
}
svg.railroad-diagram path {
  stroke-width: 2;
  stroke: #5a6872;
  fill: none;
}
svg.railroad-diagram text {
  font-size: 14px;
  font-family: 'ibm-plex-mono', 'Menlo', 'DejaVu Sans Mono', 'Bitstream Vera Sans Mono', Courier, monospace;
  color: #152935;
  text-anchor: middle;
  cursor: pointer;
}
svg.railroad-diagram text.label {
  text-anchor: start;
}
svg.railroad-diagram text.comment {
  font-size: 12px;
}
svg.railroad-diagram rect {
  stroke-width: 2;
  stroke:  #5a6872;
  fill: #5aaafa;
}
 ]]></style>
    </defs>
    
<g transform="translate(.5 .5)">
<path d="M20 41  v 20 m 10 -20 v 20 m -10 -10 h 20.5"/>
<g>
<path d="M40 51 h0"/>
<path d="M2196 51 h0"/>
<path d="M40 51 h10"/>
<g>
<path d="M50 51 h0"/>
<path d="M118 51 h0"/>
<rect x="50" y="40" width="68" height="22" />
<text x="84" y="55">SELECT</text>
</g>
<path d="M118 51 h10"/>
<g>
<path d="M128 51 h0"/>
<path d="M292 51 h0"/>
<path d="M128 51 a10 10 0 0 0 10 -10v0a10 10 0 0 1 10 -10"/>
<g>
<path d="M148 31 h124"/>
</g>
<path d="M272 31 a10 10 0 0 1 10 10v0a10 10 0 0 0 10 10"/>
<path d="M128 51 h20"/>
<g>
<path d="M148 51 h0"/>
<path d="M272 51 h0"/>
<path d="M148 51 h20"/>
<g>
<path d="M168 51 h0"/>
<path d="M252 51 h0"/>
<rect x="168" y="40" width="84" height="22" />
<text x="210" y="55">DISTINCT</text>
</g>
<path d="M252 51 h20"/>
<path d="M148 51 a10 10 0 0 1 10 10v10a10 10 0 0 0 10 10"/>
<g>
<path d="M168 81 h20"/>
<path d="M232 81 h20"/>
<rect x="188" y="70" width="44" height="22" />
<text x="210" y="85">ALL</text>
</g>
<path d="M252 81 a10 10 0 0 0 10 -10v-10a10 10 0 0 1 10 -10"/>
</g>
<path d="M272 51 h20"/>
</g>
<path d="M292 51 h10"/>
<g>
<path d="M302 51 h0"/>
<path d="M458 51 h0"/>
<path d="M302 51 h10"/>
<g>
<path d="M312 51 h0"/>
<path d="M448 51 h0"/>
<path d="M312 51 h10"/>
<g>
<a xlink:href="#resultColumn">
<path d="M322 51 h0"/>
<path d="M438 51 h0"/>
<rect x="322" y="40" width="116" height="22" />
<text x="380" y="55">resultColumn</text>
</a>
</g>
<path d="M438 51 h10"/>
</g>
<path d="M448 51 h10"/>
<path d="M312 51 a10 10 0 0 0 -10 10v10a10 10 0 0 0 10 10"/>
<g>
<path d="M312 81 h44"/>
<path d="M404 81 h44"/>
<path d="M356 81 h10"/>
<g>
<path d="M366 81 h0"/>
<path d="M394 81 h0"/>
<rect x="366" y="70" width="28" height="22" />
<text x="380" y="85">,</text>
</g>
<path d="M394 81 h10"/>
</g>
<path d="M448 81 a10 10 0 0 0 10 -10v-10a10 10 0 0 0 -10 -10"/>
</g>
<path d="M458 51 h10"/>
<path d="M468 51 h10"/>
<g id="eol">
<path d="M478 51 h0"/>
<path d="M478 51 a 10 10 0 0 1 10 10 V 100 a 10 10 0 0 1 -10 10 h -447 a 10 10 0 0 0 -10 10 V 154 a 10 10 0 0 0 10 10"/>
<path d="M478 51 h0"/>
<path d="M478 51 h0"/>
</g>
<path d="M31 164 h10"/>
<g>
<path d="M41 164 h0"/>
<path d="M465 164 h0"/>
<path d="M41 164 a10 10 0 0 0 10 -10v-9a10 10 0 0 1 10 -10"/>
<g>
<path d="M61 135 h384"/>
</g>
<path d="M445 135 a10 10 0 0 1 10 10v9a10 10 0 0 0 10 10"/>
<path d="M41 164 h20"/>
<g>
<path d="M61 164 h0"/>
<path d="M445 164 h0"/>
<path d="M61 164 h10"/>
<g>
<path d="M71 164 h0"/>
<path d="M123 164 h0"/>
<rect x="71" y="153" width="52" height="22" />
<text x="97" y="168">FROM</text>
</g>
<path d="M123 164 h10"/>
<path d="M133 164 h10"/>
<g>
<path d="M143 164 h0"/>
<path d="M267 164 h0"/>
<path d="M143 164 h10"/>
<g>
<path d="M153 164 h0"/>
<path d="M257 164 h0"/>
<path d="M153 164 h10"/>
<g>
<a xlink:href="#relation">
<path d="M163 164 h0"/>
<path d="M247 164 h0"/>
<rect x="163" y="153" width="84" height="22" />
<text x="205" y="168">relation</text>
</a>
</g>
<path d="M247 164 h10"/>
</g>
<path d="M257 164 h10"/>
<path d="M153 164 a10 10 0 0 0 -10 10v10a10 10 0 0 0 10 10"/>
<g>
<path d="M153 194 h28"/>
<path d="M229 194 h28"/>
<path d="M181 194 h10"/>
<g>
<path d="M191 194 h0"/>
<path d="M219 194 h0"/>
<rect x="191" y="183" width="28" height="22" />
<text x="205" y="198">,</text>
</g>
<path d="M219 194 h10"/>
</g>
<path d="M257 194 a10 10 0 0 0 10 -10v-10a10 10 0 0 0 -10 -10"/>
</g>
<path d="M267 164 h10"/>
<g>
<path d="M277 164 h0"/>
<path d="M445 164 h0"/>
<path d="M277 164 a10 10 0 0 0 10 -10v0a10 10 0 0 1 10 -10"/>
<g>
<path d="M297 144 h128"/>
</g>
<path d="M425 144 a10 10 0 0 1 10 10v0a10 10 0 0 0 10 10"/>
<path d="M277 164 h20"/>
<g>
<path d="M297 164 h0"/>
<path d="M425 164 h0"/>
<path d="M297 164 h10"/>
<g>
<a xlink:href="#lateralView">
<path d="M307 164 h0"/>
<path d="M415 164 h0"/>
<rect x="307" y="153" width="108" height="22" />
<text x="361" y="168">lateralView</text>
</a>
</g>
<path d="M415 164 h10"/>
<path d="M307 164 a10 10 0 0 0 -10 10v0a10 10 0 0 0 10 10"/>
<g>
<path d="M307 184 h108"/>
</g>
<path d="M415 184 a10 10 0 0 0 10 -10v0a10 10 0 0 0 -10 -10"/>
</g>
<path d="M425 164 h20"/>
</g>
</g>
<path d="M445 164 h20"/>
</g>
<path d="M465 164 h10"/>
<g id="eol">
<path d="M475 164 h0"/>
<path d="M475 164 a 10 10 0 0 1 10 10 V 213 a 10 10 0 0 1 -10 10 h -444 a 10 10 0 0 0 -10 10 V 258 a 10 10 0 0 0 10 10"/>
<path d="M475 164 h0"/>
<path d="M475 164 h0"/>
</g>
<path d="M31 268 h10"/>
<g>
<path d="M41 268 h0"/>
<path d="M337 268 h0"/>
<path d="M41 268 a10 10 0 0 0 10 -10v0a10 10 0 0 1 10 -10"/>
<g>
<path d="M61 248 h256"/>
</g>
<path d="M317 248 a10 10 0 0 1 10 10v0a10 10 0 0 0 10 10"/>
<path d="M41 268 h20"/>
<g>
<path d="M61 268 h0"/>
<path d="M317 268 h0"/>
<path d="M61 268 h10"/>
<g>
<path d="M71 268 h0"/>
<path d="M131 268 h0"/>
<rect x="71" y="257" width="60" height="22" />
<text x="101" y="272">WHERE</text>
</g>
<path d="M131 268 h10"/>
<path d="M141 268 h10"/>
<g>
<a xlink:href="#booleanExpression">
<path d="M151 268 h0"/>
<path d="M307 268 h0"/>
<rect x="151" y="257" width="156" height="22" />
<text x="229" y="272">booleanExpression</text>
</a>
</g>
<path d="M307 268 h10"/>
</g>
<path d="M317 268 h20"/>
</g>
<path d="M337 268 h10"/>
<g id="eol">
<path d="M347 268 h0"/>
<path d="M347 268 a 10 10 0 0 1 10 10 V 287 a 10 10 0 0 1 -10 10 h -316 a 10 10 0 0 0 -10 10 V 332 a 10 10 0 0 0 10 10"/>
<path d="M347 268 h0"/>
<path d="M347 268 h0"/>
</g>
<path d="M31 342 h10"/>
<g>
<path d="M41 342 h0"/>
<path d="M205 342 h0"/>
<path d="M41 342 a10 10 0 0 0 10 -10v0a10 10 0 0 1 10 -10"/>
<g>
<path d="M61 322 h124"/>
</g>
<path d="M185 322 a10 10 0 0 1 10 10v0a10 10 0 0 0 10 10"/>
<path d="M41 342 h20"/>
<g>
<a xlink:href="#groupByClause">
<path d="M61 342 h0"/>
<path d="M185 342 h0"/>
<rect x="61" y="331" width="124" height="22" />
<text x="123" y="346">groupByClause</text>
</a>
</g>
<path d="M185 342 h20"/>
</g>
<g>
<path d="M205 342 h0"/>
<path d="M509 342 h0"/>
<path d="M205 342 a10 10 0 0 0 10 -10v0a10 10 0 0 1 10 -10"/>
<g>
<path d="M225 322 h264"/>
</g>
<path d="M489 322 a10 10 0 0 1 10 10v0a10 10 0 0 0 10 10"/>
<path d="M205 342 h20"/>
<g>
<path d="M225 342 h0"/>
<path d="M489 342 h0"/>
<path d="M225 342 h10"/>
<g>
<path d="M235 342 h0"/>
<path d="M303 342 h0"/>
<rect x="235" y="331" width="68" height="22" />
<text x="269" y="346">HAVING</text>
</g>
<path d="M303 342 h10"/>
<path d="M313 342 h10"/>
<g>
<a xlink:href="#booleanExpression">
<path d="M323 342 h0"/>
<path d="M479 342 h0"/>
<rect x="323" y="331" width="156" height="22" />
<text x="401" y="346">booleanExpression</text>
</a>
</g>
<path d="M479 342 h10"/>
</g>
<path d="M489 342 h20"/>
</g>
<path d="M509 342 h10"/>
<g id="eol">
<path d="M519 342 h0"/>
<path d="M519 342 a 10 10 0 0 1 10 10 V 361 a 10 10 0 0 1 -10 10 h -488 a 10 10 0 0 0 -10 10 V 406 a 10 10 0 0 0 10 10"/>
<path d="M519 342 h0"/>
<path d="M519 342 h0"/>
</g>
<path d="M31 416 h10"/>
<g>
<path d="M41 416 h0"/>
<path d="M197 416 h0"/>
<path d="M41 416 a10 10 0 0 0 10 -10v0a10 10 0 0 1 10 -10"/>
<g>
<path d="M61 396 h116"/>
</g>
<path d="M177 396 a10 10 0 0 1 10 10v0a10 10 0 0 0 10 10"/>
<path d="M41 416 h20"/>
<g>
<a xlink:href="#namedWindows">
<path d="M61 416 h0"/>
<path d="M177 416 h0"/>
<rect x="61" y="405" width="116" height="22" />
<text x="119" y="420">namedWindows</text>
</a>
</g>
<path d="M177 416 h20"/>
</g>
</g>
<path d="M197 416  h 20 m -10 -10 v 20 m 10 -20 v 20"/>
</g>
</svg>
