<?xml version="1.0" standalone="no"?>
<!DOCTYPE svg PUBLIC "-//W3C//DTD SVG 1.1//EN"
  "http://www.w3.org/Graphics/SVG/1.1/DTD/svg11.dtd">

<svg xmlns="http://www.w3.org/2000/svg" version="1.1" class="railroad-diagram"  viewBox="0 0 370 92"  xmlns:xlink="http://www.w3.org/1999/xlink" preserveAspectRatio="xMinYMin meet">
    <defs>
        <style type="text/css"><![CDATA[ svg.railroad-diagram {
  background-color: #ffffff;
}
svg.railroad-diagram path {
  stroke-width: 2;
  stroke: #5a6872;
  fill: none;
}
svg.railroad-diagram text {
  font-size: 14px;
  font-family: 'ibm-plex-mono', 'Menlo', 'DejaVu Sans Mono', 'Bitstream Vera Sans Mono', Courier, monospace;
  color: #152935;
  text-anchor: middle;
  cursor: pointer;
}
svg.railroad-diagram text.label {
  text-anchor: start;
}
svg.railroad-diagram text.comment {
  font-size: 12px;
}
svg.railroad-diagram rect {
  stroke-width: 2;
  stroke:  #5a6872;
  fill: #5aaafa;
}
 ]]></style>
    </defs>
    
<g transform="translate(.5 .5)">
<path d="M 20 21 v 20 m 10 -20 v 20 m -10 -10 h 20.5"/>
<g>
<path d="M40 31h0"/>
<path d="M340 31h0"/>
<g>
<path d="M40 31h0"/>
<path d="M140 31h0"/>
<path d="M40 31h20"/>
<g>
<path d="M60 31h0"/>
<path d="M120 31h0"/>
<rect x="60" y="20" width="60" height="22" rx="10" ry="10"/>
<text x="90" y="35">ORDER</text>
</g>
<path d="M120 31h20"/>
<path d="M40 31a10 10 0 0 1 10 10v10a10 10 0 0 0 10 10"/>
<g>
<path d="M60 61h4"/>
<path d="M116 61h4"/>
<rect x="64" y="50" width="52" height="22" rx="10" ry="10"/>
<text x="90" y="65">SORT</text>
</g>
<path d="M120 61a10 10 0 0 0 10 -10v-10a10 10 0 0 1 10 -10"/>
</g>
<path d="M140 31h10"/>
<g>
<path d="M150 31h0"/>
<path d="M186 31h0"/>
<rect x="150" y="20" width="36" height="22" rx="10" ry="10"/>
<text x="168" y="35">BY</text>
</g>
<path d="M186 31h10"/>
<path d="M196 31h10"/>
<g>
<path d="M206 31h0"/>
<path d="M330 31h0"/>
<path d="M206 31h10"/>
<g>
<path d="M216 31h0"/>
<path d="M320 31h0"/>
<path d="M216 31h10"/>
<g>
<a xlink:href="/docs/sql-query?topic=sql-query-sql-reference#sortItem" target="_top">
<path d="M226 31h0"/>
<path d="M310 31h0"/>
<rect x="226" y="20" width="84" height="22"/>
<text x="268" y="35">sortItem</text>
</a>
</g>
<path d="M310 31h10"/>
</g>
<path d="M320 31h10"/>
<path d="M216 31a10 10 0 0 0 -10 10v10a10 10 0 0 0 10 10"/>
<g>
<path d="M216 61h28"/>
<path d="M292 61h28"/>
<path d="M244 61h10"/>
<g>
<path d="M254 61h0"/>
<path d="M282 61h0"/>
<rect x="254" y="50" width="28" height="22" rx="10" ry="10"/>
<text x="268" y="65">,</text>
</g>
<path d="M282 61h10"/>
</g>
<path d="M320 61a10 10 0 0 0 10 -10v-10a10 10 0 0 0 -10 -10"/>
</g>
<path d="M330 31h10"/>
</g>
<path d="M 340 31 h 20 m -10 -10 v 20 m 10 -20 v 20"/>
</g>
</svg>
