<?xml version="1.0" standalone="no"?>
<!DOCTYPE svg PUBLIC "-//W3C//DTD SVG 1.1//EN"
  "http://www.w3.org/Graphics/SVG/1.1/DTD/svg11.dtd">

<svg xmlns="http://www.w3.org/2000/svg" version="1.1" class="railroad-diagram"  viewBox="0 0 382 92"  xmlns:xlink="http://www.w3.org/1999/xlink" preserveAspectRatio="xMinYMin meet">
    <defs>
        <style type="text/css"><![CDATA[ svg.railroad-diagram {
  background-color: #ffffff;
}
svg.railroad-diagram path {
  stroke-width: 2;
  stroke: #5a6872;
  fill: none;
}
svg.railroad-diagram text {
  font-size: 14px;
  font-family: 'ibm-plex-mono', 'Menlo', 'DejaVu Sans Mono', 'Bitstream Vera Sans Mono', Courier, monospace;
  color: #152935;
  text-anchor: middle;
  cursor: pointer;
}
svg.railroad-diagram text.label {
  text-anchor: start;
}
svg.railroad-diagram text.comment {
  font-size: 12px;
}
svg.railroad-diagram rect {
  stroke-width: 2;
  stroke:  #5a6872;
  fill: #5aaafa;
}
 ]]></style>
    </defs>
    
<g transform="translate(.5 .5)">
<path d="M 20 21 v 20 m 10 -20 v 20 m -10 -10 h 20.5"/>
<g>
<path d="M40 31h0"/>
<path d="M352 31h0"/>
<path d="M40 31h10"/>
<g>
<path d="M50 31h0"/>
<path d="M126 31h0"/>
<rect x="50" y="20" width="76" height="22" rx="10" ry="10"/>
<text x="88" y="35">CLUSTER</text>
</g>
<path d="M126 31h10"/>
<path d="M136 31h10"/>
<g>
<path d="M146 31h0"/>
<path d="M182 31h0"/>
<rect x="146" y="20" width="36" height="22" rx="10" ry="10"/>
<text x="164" y="35">BY</text>
</g>
<path d="M182 31h10"/>
<path d="M192 31h10"/>
<g>
<path d="M202 31h0"/>
<path d="M342 31h0"/>
<path d="M202 31h10"/>
<g>
<path d="M212 31h0"/>
<path d="M332 31h0"/>
<path d="M212 31h10"/>
<g>
<a xlink:href="/docs/sql-query?topic=sql-query-sql-reference#expression" target="_top">
<path d="M222 31h0"/>
<path d="M322 31h0"/>
<rect x="222" y="20" width="100" height="22"/>
<text x="272" y="35">expression</text>
</a>
</g>
<path d="M322 31h10"/>
</g>
<path d="M332 31h10"/>
<path d="M212 31a10 10 0 0 0 -10 10v10a10 10 0 0 0 10 10"/>
<g>
<path d="M212 61h36"/>
<path d="M296 61h36"/>
<path d="M248 61h10"/>
<g>
<path d="M258 61h0"/>
<path d="M286 61h0"/>
<rect x="258" y="50" width="28" height="22" rx="10" ry="10"/>
<text x="272" y="65">,</text>
</g>
<path d="M286 61h10"/>
</g>
<path d="M332 61a10 10 0 0 0 10 -10v-10a10 10 0 0 0 -10 -10"/>
</g>
<path d="M342 31h10"/>
</g>
<path d="M 352 31 h 20 m -10 -10 v 20 m 10 -20 v 20"/>
</g>
</svg>
