<?xml version="1.0" encoding="utf-8"?>
<!-- Generator: Adobe Illustrator 24.0.0, SVG Export Plug-In . SVG Version: 6.00 Build 0)  -->
<svg version="1.1" id="Layer_1" xmlns="http://www.w3.org/2000/svg" xmlns:xlink="http://www.w3.org/1999/xlink" x="0px" y="0px"
	 viewBox="0 0 1199 492" style="enable-background:new 0 0 1199 492;" xml:space="preserve">
<style type="text/css">
	.st0{fill-rule:evenodd;clip-rule:evenodd;fill:#FFFFFF;}
	.st1{fill-rule:evenodd;clip-rule:evenodd;fill:#F6C143;stroke:#2D0402;stroke-width:5;}
	.st2{fill:#2D0402;}
	.st3{font-family:'IBMPlexSans';}
	.st4{font-size:36px;}
	.st5{fill:#2D0300;}
	.st6{font-size:18px;}
	.st7{font-family:'IBMPlexSans-Bold';}
	.st8{font-size:24px;}
	.st9{enable-background:new    ;}
	.st10{fill:none;stroke:#979797;stroke-linecap:square;}
	.st11{fill:none;stroke:#70ACF4;stroke-linecap:square;}
	.st12{fill:none;stroke:#70ACF4;stroke-width:2;}
	.st13{fill-rule:evenodd;clip-rule:evenodd;fill:#6EABF5;}
	.st14{fill-rule:evenodd;clip-rule:evenodd;fill:#3B5B7C;}
	.st15{fill-rule:evenodd;clip-rule:evenodd;fill:#6AA7F6;}
	.st16{fill-rule:evenodd;clip-rule:evenodd;fill:#9FD741;}
	.st17{fill-rule:evenodd;clip-rule:evenodd;fill:#22323D;}
	.st18{fill-rule:evenodd;clip-rule:evenodd;fill:#9BD140;}
	.st19{fill-rule:evenodd;clip-rule:evenodd;fill:#24343D;}
	.st20{fill-rule:evenodd;clip-rule:evenodd;fill:#69A7F4;}
	.st21{fill:none;stroke:#1D4067;stroke-width:6;stroke-linecap:square;}
	.st22{fill:none;stroke:#1D4067;stroke-width:4;stroke-linecap:square;}
	.st23{fill:none;stroke:#1D4067;stroke-width:5;stroke-linecap:square;}
	.st24{fill-rule:evenodd;clip-rule:evenodd;fill:#4EACCD;}
	.st25{fill-rule:evenodd;clip-rule:evenodd;fill:#95C34B;}
	.st26{filter:url(#Adobe_OpacityMaskFilter);}
	.st27{fill:#FFFFFF;}
	.st28{fill:url(#SVGID_1_);}
	.st29{fill:url(#SVGID_2_);}
	.st30{fill:url(#SVGID_3_);}
	.st31{mask:url(#Color_1_);fill:url(#Color_2_);}
	.st32{fill:#242B66;}
</style>
<title>Access Secrets</title>
<rect class="st0" width="1199" height="492"/>
<path id="Rectangle" class="st1" d="M30.5,48.5h192c12.2,0,22,9.8,22,22v84c0,12.2-9.8,22-22,22h-192c-12.2,0-22-9.8-22-22v-84
	C8.5,58.3,18.3,48.5,30.5,48.5z"/>
<path id="Rectangle-Copy" class="st1" d="M503.5,350.5h192c12.2,0,22,9.8,22,22v84c0,12.2-9.8,22-22,22h-192c-12.2,0-22-9.8-22-22
	v-84C481.5,360.3,491.3,350.5,503.5,350.5z"/>
<path id="Rectangle-Copy-3" class="st1" d="M976.5,48.5h192c12.2,0,22,9.8,22,22v84c0,12.2-9.8,22-22,22h-192c-12.2,0-22-9.8-22-22
	v-84C954.5,58.3,964.3,48.5,976.5,48.5z"/>
<path id="Line" class="st2" d="M1068.9,178.2l-10.5,18.5l-4.5-6.6L720.3,414.7l-1.2,0.8l-1.7-2.5l1.2-0.8l333.7-224.7l-4.5-6.6
	L1068.9,178.2z"/>
<path id="Line-2" class="st2" d="M126.1,178.2l21.1,2.7l-4.4,6.6l337.6,225.7l1.2,0.8l-1.7,2.5l-1.2-0.8L141,190l-4.4,6.7
	L126.1,178.2z"/>
<text transform="matrix(1 0 0 1 562 126)" class="st3 st4">User</text>
<path id="Line-3" class="st5" d="M933,103l19,9.5l-19,9.5v-8H661v-3h272V103z"/>
<path id="Line-4" class="st2" d="M265,103v8h272v3H265v8l-19-9.5L265,103z"/>
<text transform="matrix(1 0 0 1 286.573 79)" class="st3 st6">1. </text>
<text transform="matrix(1 0 0 1 306.517 79)" class="st7 st6">Create user/password </text>
<text transform="matrix(1 0 0 1 294.898 102)" class="st3 st6">combination or </text>
<text transform="matrix(1 0 0 1 420.826 102)" class="st7 st6">API key</text>
<text transform="matrix(1 0 0 1 678.591 79)" class="st3 st6">2. </text>
<text transform="matrix(1 0 0 1 698.535 79)" class="st7 st6">Store </text>
<text transform="matrix(1 0 0 1 748.449 79)" class="st3 st6">password or API key</text>
<text transform="matrix(1 0 0 1 913.5433 79)" class="st3 st6"> </text>
<text transform="matrix(1 0 0 1 665.181 102)" class="st7 st6">base64</text>
<text transform="matrix(1 0 0 1 727.1541 102)" class="st3 st6"> </text>
<text transform="matrix(1 0 0 1 727.155 102)" class="st3 st6">-encoded as </text>
<text transform="matrix(1 0 0 1 831.213 102)" class="st7 st6">custom key</text>
<path id="Line-5" class="st2" d="M601,137v193h8l-9.5,19l-9.5-19h8V137H601z"/>
<text transform="matrix(1 0 0 1 608 193)" class="st3 st6">3. Submit SQL statement </text>
<text transform="matrix(1 0 0 1 608 216)" class="st3 st6">referencing password or API </text>
<text transform="matrix(1 0 0 1 608 239)" class="st3 st6">key via </text>
<text transform="matrix(1 0 0 1 667.814 239)" class="st7 st6">Key Protect CRN</text>
<text transform="matrix(1 0 0 1 843.677 366)" class="st3 st6">4. </text>
<text transform="matrix(1 0 0 1 863.621 366)" class="st7 st6">Securely retrieve</text>
<text transform="matrix(1 0 0 1 1007.71 366)" class="st3 st6"> </text>
<text transform="matrix(1 0 0 1 843.02 389)" class="st3 st6">password or API key</text>
<text transform="matrix(1 0 0 1 123.04 371)" class="st3 st6">5. </text>
<text transform="matrix(1 0 0 1 142.984 371)" class="st7 st6">Connect </text>
<text transform="matrix(1 0 0 1 216.874 371)" class="st3 st6">with retrieved </text>
<text transform="matrix(1 0 0 1 69.337 394)" class="st3 st6">user/password combination or API key</text>
<text transform="matrix(1 0 0 1 51 93)" class="st7 st8">Data sources</text>
<text transform="matrix(1 0 0 1 608 409.0683)" class="st9"><tspan x="0" y="0" class="st7 st8">Data</tspan><tspan x="0" y="28.8" class="st7 st8">Engine</tspan></text>
<text transform="matrix(1 0 0 1 1094.984 107)" class="st7 st8">IBM </text>
<text transform="matrix(1 0 0 1 1052.036 139)" class="st7 st8">Key Protect</text>
<line id="Line-17" class="st10" x1="72.5" y1="134.5" x2="84.5" y2="134.5"/>
<line id="Line-16" class="st11" x1="79.5" y1="121.5" x2="79.5" y2="128.5"/>
<line id="Line-9" class="st10" x1="72.5" y1="128.5" x2="84.5" y2="128.5"/>
<line id="Line-10" class="st10" x1="84.5" y1="128.5" x2="84.5" y2="133.5"/>
<line id="Line-11" class="st11" x1="84.5" y1="134.5" x2="91.5" y2="134.5"/>
<line id="Line-12" class="st10" x1="73.5" y1="133.5" x2="73.5" y2="139.5"/>
<line id="Line-13" class="st10" x1="73.5" y1="139.5" x2="84.5" y2="139.5"/>
<line id="Line-14" class="st11" x1="79.5" y1="139.5" x2="79.5" y2="146.5"/>
<line id="Line-15" class="st11" x1="66.5" y1="134.5" x2="74.5" y2="134.5"/>
<path id="Polygon" class="st12" d="M92,111.5l12.9,22.4L92,156.3l-25.8,0l-12.9-22.4l12.9-22.4L92,111.5z"/>
<circle id="Oval" class="st13" cx="79" cy="122" r="2"/>
<circle id="Oval-Copy-14" class="st14" cx="79" cy="128" r="2"/>
<circle id="Oval-Copy-15" class="st14" cx="85" cy="128" r="2"/>
<circle id="Oval-Copy-16" class="st14" cx="85" cy="134" r="2"/>
<circle id="Oval-Copy-17" class="st13" cx="90" cy="134" r="2"/>
<circle id="Oval-Copy-18" class="st14" cx="85" cy="140" r="2"/>
<circle id="Oval-Copy-19" class="st14" cx="79" cy="140" r="2"/>
<circle id="Oval-Copy-20" class="st13" cx="79" cy="146" r="2"/>
<circle id="Oval-Copy-21" class="st14" cx="73" cy="140" r="2"/>
<circle id="Oval-Copy-22" class="st14" cx="73" cy="134" r="2"/>
<circle id="Oval-Copy-23" class="st14" cx="73" cy="128" r="2"/>
<circle id="Oval-Copy-24" class="st13" cx="67" cy="134" r="2"/>
<path id="Combined-Shape" class="st15" d="M183.1,112.5l16,8.4l0,0l0,24.3l-6,2.7l0-24.3l-15.1-8.1L183.1,112.5z"/>
<path id="Combined-Shape_1_" class="st16" d="M177,157.4l-21.5-12.9v-6.8l21.5,12.6v-0.4l15-8.1v7.2L177,157.4L177,157.4z"/>
<path id="Combined-Shape_2_" class="st17" d="M177.2,108.5l4.7,3.4L161,123.7v15.4l-5-2.6l0-15.6l-0.1,0L177.2,108.5z"/>
<polygon id="Rectangle-Copy-15" class="st18" points="177,132.3 192,123.9 192,140.2 177,147.9 "/>
<polygon id="Rectangle-Copy-17" class="st19" points="162,139.7 176,147.9 176,132.1 162,123.9 "/>
<polygon id="Rectangle_1_" class="st20" points="177,116.7 190.5,123.5 177,130.7 164.7,123.5 "/>
<line id="Line-27" class="st21" x1="984.5" y1="104.5" x2="993.5" y2="99.5"/>
<line id="Line-28" class="st22" x1="1000.5" y1="94.5" x2="1002.5" y2="93.5"/>
<line id="Line-29" class="st21" x1="1037.5" y1="103.5" x2="1029.5" y2="99.5"/>
<line id="Line-30" class="st22" x1="1020.5" y1="94.5" x2="1018.5" y2="93.5"/>
<line id="Line-26" class="st23" x1="983.5" y1="105.5" x2="983.5" y2="135.5"/>
<line id="Line-24" class="st23" x1="1010.5" y1="151.5" x2="984.5" y2="136.5"/>
<line id="Line-20" class="st23" x1="985.5" y1="104.5" x2="1010.5" y2="118.5"/>
<line id="Line-21" class="st23" x1="1011.5" y1="118.5" x2="1036.5" y2="103.5"/>
<line id="Line-23" class="st23" x1="1012.5" y1="151.5" x2="1037.5" y2="136.5"/>
<line id="Line-22" class="st23" x1="1011.5" y1="119.5" x2="1011.5" y2="147.5"/>
<line id="Line-25" class="st23" x1="1038.5" y1="105.5" x2="1038.5" y2="135.5"/>
<circle id="Oval-Copy-10" class="st24" cx="1010.5" cy="112.5" r="5.5"/>
<circle id="Oval-Copy-11" class="st24" cx="1028.5" cy="76.5" r="5.5"/>
<circle id="Oval-Copy-12" class="st24" cx="993.5" cy="76.5" r="5.5"/>
<circle id="Oval_1_" class="st25" cx="1010.5" cy="90.5" r="5.5"/>
<circle id="Oval-Copy-13" class="st25" cx="1010.5" cy="67.5" r="5.5"/>
<circle id="Oval-Copy-8" class="st25" cx="1026.5" cy="99.5" r="5.5"/>
<circle id="Oval-Copy-9" class="st25" cx="994.5" cy="99.5" r="5.5"/>
<g>
	<defs>
		<filter id="Adobe_OpacityMaskFilter" filterUnits="userSpaceOnUse" x="520" y="382.1" width="71.7" height="71.7">
			<feColorMatrix  type="matrix" values="1 0 0 0 0  0 1 0 0 0  0 0 1 0 0  0 0 0 1 0"/>
		</filter>
	</defs>
	<mask maskUnits="userSpaceOnUse" x="520" y="382.1" width="71.7" height="71.7" id="Color_1_">
		<g class="st26">
			<g>
				<path class="st27" d="M558.1,415.7v-2.2h-22.4v9v4.5v9h20.2v4.5h-22.2c-1.3,0-2.4-1.1-2.4-2.4v-11H520v-4.5h11.2v-11
					c0-1.3,1.1-2.4,2.4-2.4h26.5c1.3,0,2.4,1.1,2.4,2.4v4.3H558.1z"/>
				<rect x="519.7" y="393.3" class="st27" width="18.2" height="4.5"/>
				<linearGradient id="SVGID_1_" gradientUnits="userSpaceOnUse" x1="520.0312" y1="424.6921" x2="530.567" y2="424.6921">
					<stop  offset="0.15" style="stop-color:#000000"/>
					<stop  offset="1" style="stop-color:#000000;stop-opacity:0"/>
				</linearGradient>
				<rect x="520" y="420.2" class="st28" width="10.5" height="9"/>
				
					<linearGradient id="SVGID_2_" gradientUnits="userSpaceOnUse" x1="3793.8242" y1="-3086.2161" x2="3813.9937" y2="-3086.2161" gradientTransform="matrix(-1 0 0 -1 4351.9531 -2648.3123)">
					<stop  offset="0.1" style="stop-color:#000000"/>
					<stop  offset="0.8" style="stop-color:#000000;stop-opacity:0"/>
				</linearGradient>
				<polygon class="st29" points="538,442.4 558.1,442.4 558.1,433.4 538,433.4 				"/>
				<linearGradient id="SVGID_3_" gradientUnits="userSpaceOnUse" x1="520.0312" y1="395.5584" x2="535.421" y2="395.5584">
					<stop  offset="0.15" style="stop-color:#000000"/>
					<stop  offset="1" style="stop-color:#000000;stop-opacity:0"/>
				</linearGradient>
				<rect x="520" y="391.1" class="st30" width="15.4" height="9"/>
			</g>
		</g>
	</mask>
	<linearGradient id="Color_2_" gradientUnits="userSpaceOnUse" x1="520.0312" y1="453.7994" x2="591.7449" y2="382.0857">
		<stop  offset="0.1" style="stop-color:#1ABBB8"/>
		<stop  offset="0.9" style="stop-color:#4167B0"/>
	</linearGradient>
	
		<rect id="Color_00000089552827821596177280000003852103429050877584_" x="520" y="382.1" class="st31" width="71.7" height="71.7"/>
	<path class="st32" d="M582.8,433.6c0-1.2-0.2-2.4-0.6-3.5l4.1-2.4l-2.2-3.9l-4.1,2.4c-1.6-1.8-3.7-3.1-6.1-3.6v-4.7h-4.5v4.7
		c-2.4,0.5-4.5,1.8-6.1,3.6l-4.1-2.4l-2.2,3.9l4.1,2.4c-0.4,1.1-0.6,2.3-0.6,3.5c0,1.2,0.2,2.4,0.6,3.5l-4.1,2.4l2.2,3.9l4.1-2.4
		c1.6,1.8,3.7,3.1,6.1,3.6v4.7h4.5v-4.7c2.4-0.5,4.5-1.8,6.1-3.6l4.1,2.4l2.2-3.9l-4.1-2.4C582.5,436,582.8,434.9,582.8,433.6z
		 M571.6,440.4c-3.7,0-6.7-3-6.7-6.7s3-6.7,6.7-6.7c3.7,0,6.7,3,6.7,6.7S575.3,440.4,571.6,440.4z"/>
	<g>
		<circle class="st32" cx="553.6" cy="395.5" r="2.2"/>
		<path class="st32" d="M546.9,404.5h35.9c2.5,0,4.5-2,4.5-4.5v-9c0-2.5-2-4.5-4.5-4.5h-35.9c-2.5,0-4.5,2-4.5,4.5v9
			C542.4,402.5,544.4,404.5,546.9,404.5z M546.9,391h35.9v9h-35.9V391z"/>
	</g>
</g>
</svg>
