<?xml version="1.0" standalone="no"?>
<!DOCTYPE svg PUBLIC "-//W3C//DTD SVG 1.1//EN"
  "http://www.w3.org/Graphics/SVG/1.1/DTD/svg11.dtd">
<svg xmlns="http://www.w3.org/2000/svg" version="1.1" class="railroad-diagram" width="929" height="102" viewBox="0 0 929 102" xmlns:xlink="http://www.w3.org/1999/xlink" preserveAspectRatio="xMinYMin meet">
    <defs>
        <style type="text/css"><![CDATA[ svg.railroad-diagram {
  background-color: #ffffff;
}
svg.railroad-diagram path {
  stroke-width: 2;
  stroke: #5a6872;
  fill: none;
}
svg.railroad-diagram text {
  font-size: 14px;
  font-family: 'ibm-plex-mono', 'Menlo', 'DejaVu Sans Mono', 'Bitstream Vera Sans Mono', Courier, monospace;
  color: #152935;
  text-anchor: middle;
  cursor: pointer;
}
svg.railroad-diagram text.label {
  text-anchor: start;
}
svg.railroad-diagram text.comment {
  font-size: 12px;
}
svg.railroad-diagram rect {
  stroke-width: 2;
  stroke:  #5a6872;
  fill: #5aaafa;
}
 ]]></style>
    </defs>
    <g transform="translate(.5 .5)">
        <path d="M 20 31 v 20 m 10 -20 v 20 m -10 -10 h 20.5"/>
        <g>
            <path d="M40 41h0"/>
            <path d="M888 41h0"/>
            <path d="M40 41h10"/>
            <g>
                <path d="M50 41h0"/>
                <path d="M110 41h0"/>
                <rect x="50" y="30" width="60" height="22" rx="10" ry="10"/>
                <text x="80" y="45">ALTER</text>
            </g>
            <path d="M110 41h10"/>
            <g>
                <path d="M120 41h0"/>
                <path d="M220 41h0"/>
                <path d="M120 41h20"/>
                <g>
                    <path d="M140 41h0"/>
                    <path d="M200 41h0"/>
                    <rect x="140" y="30" width="60" height="22" rx="10" ry="10"/>
                    <text x="170" y="45">TABLE</text>
                </g>
                <path d="M200 41h20"/>
                <path d="M120 41a10 10 0 0 1 10 10v10a10 10 0 0 0 10 10"/>
                <g>
                    <path d="M140 71h4"/>
                    <path d="M196 71h4"/>
                    <rect x="144" y="60" width="52" height="22" rx="10" ry="10"/>
                    <text x="170" y="75">VIEW</text>
                </g>
                <path d="M200 71a10 10 0 0 0 10 -10v-10a10 10 0 0 1 10 -10"/>
            </g>
            <path d="M220 41h10"/>
            <g>
                <a xlink:href="/docs/sql-query?topic=sql-query-sql-reference#tableIdentifier" target="_top">
                    <path d="M230 41h0"/>
                    <path d="M370 41h0"/>
                    <rect x="230" y="30" width="140" height="22"/>
                    <text x="300" y="45">tableIdentifier</text>
                </a>
            </g>
            <path d="M370 41h10"/>
            <path d="M380 41h10"/>
            <g>
                <path d="M390 41h0"/>
                <path d="M434 41h0"/>
                <rect x="390" y="30" width="44" height="22" rx="10" ry="10"/>
                <text x="412" y="45">SET</text>
            </g>
            <path d="M434 41h10"/>
            <path d="M444 41h10"/>
            <g>
                <path d="M454 41h0"/>
                <path d="M578 41h0"/>
                <rect x="454" y="30" width="124" height="22" rx="10" ry="10"/>
                <text x="516" y="45">TBLPROPERTIES</text>
            </g>
            <path d="M578 41h10"/>
            <path d="M588 41h10"/>
            <g>
                <path d="M598 41h0"/>
                <path d="M626 41h0"/>
                <rect x="598" y="30" width="28" height="22" rx="10" ry="10"/>
                <text x="612" y="45">(</text>
            </g>
            <path d="M626 41h10"/>
            <path d="M636 41h10"/>
            <g>
                <path d="M646 41h0"/>
                <path d="M810 41h0"/>
                <path d="M646 41h10"/>
                <g>
                    <path d="M656 41h0"/>
                    <path d="M800 41h0"/>
                    <path d="M656 41h10"/>
                    <g>
                        <a xlink:href="/docs/sql-query?topic=sql-query-sql-reference#tableProperty" target="_top">
                            <path d="M666 41h0"/>
                            <path d="M790 41h0"/>
                            <rect x="666" y="30" width="124" height="22"/>
                            <text x="728" y="45">tableProperty</text>
                        </a>
                    </g>
                    <path d="M790 41h10"/>
                </g>
                <path d="M800 41h10"/>
                <path d="M656 41a10 10 0 0 0 -10 10v10a10 10 0 0 0 10 10"/>
                <g>
                    <path d="M656 71h48"/>
                    <path d="M752 71h48"/>
                    <path d="M704 71h10"/>
                    <g>
                        <path d="M714 71h0"/>
                        <path d="M742 71h0"/>
                        <rect x="714" y="60" width="28" height="22" rx="10" ry="10"/>
                        <text x="728" y="75">,</text>
                    </g>
                    <path d="M742 71h10"/>
                </g>
                <path d="M800 71a10 10 0 0 0 10 -10v-10a10 10 0 0 0 -10 -10"/>
            </g>
            <path d="M810 41h10"/>
            <g>
                <path d="M820 41h0"/>
                <path d="M888 41h0"/>
                <path d="M820 41a10 10 0 0 0 10 -10v0a10 10 0 0 1 10 -10"/>
                <g>
                    <path d="M840 21h28"/>
                </g>
                <path d="M868 21a10 10 0 0 1 10 10v0a10 10 0 0 0 10 10"/>
                <path d="M820 41h20"/>
                <g>
                    <path d="M840 41h0"/>
                    <path d="M868 41h0"/>
                    <rect x="840" y="30" width="28" height="22" rx="10" ry="10"/>
                    <text x="854" y="45">)</text>
                </g>
                <path d="M868 41h20"/>
            </g>
        </g>
        <path d="M 888 41 h 20 m -10 -10 v 20 m 10 -20 v 20"/>
    </g>
</svg>