<?xml version="1.0" standalone="no"?>
<!DOCTYPE svg PUBLIC "-//W3C//DTD SVG 1.1//EN"
  "http://www.w3.org/Graphics/SVG/1.1/DTD/svg11.dtd">
<svg xmlns="http://www.w3.org/2000/svg" version="1.1" class="railroad-diagram" width="865" height="92" viewBox="0 0 865 92" xmlns:xlink="http://www.w3.org/1999/xlink">
    <defs>
        <style type="text/css"><![CDATA[ svg.railroad-diagram {
  background-color: #ffffff;
}
svg.railroad-diagram path {
  stroke-width: 2;
  stroke: #5a6872;
  fill: none;
}
svg.railroad-diagram text {
  font-size: 14px;
  font-family: 'ibm-plex-mono', 'Menlo', 'DejaVu Sans Mono', 'Bitstream Vera Sans Mono', Courier, monospace;
  color: #152935;
  text-anchor: middle;
  cursor: pointer;
}
svg.railroad-diagram text.label {
  text-anchor: start;
}
svg.railroad-diagram text.comment {
  font-size: 12px;
}
svg.railroad-diagram rect {
  stroke-width: 2;
  stroke:  #5a6872;
  fill: #5aaafa;
}
 ]]></style>
    </defs>
    <g transform="translate(.5 .5)">
        <path d="M 20 21 v 20 m 10 -20 v 20 m -10 -10 h 20.5"/>
        <g>
            <path d="M40 31h0"/>
            <path d="M824 31h0"/>
            <path d="M40 31h10"/>
            <g>
                <path d="M50 31h0"/>
                <path d="M110 31h0"/>
                <rect x="50" y="20" width="60" height="22" rx="10" ry="10"/>
                <text x="80" y="35">ALTER</text>
            </g>
            <path d="M110 31h10"/>
            <path d="M120 31h10"/>
            <g>
                <path d="M130 31h0"/>
                <path d="M190 31h0"/>
                <rect x="130" y="20" width="60" height="22" rx="10" ry="10"/>
                <text x="160" y="35">TABLE</text>
            </g>
            <path d="M190 31h10"/>
            <path d="M200 31h10"/>
            <g>
                <a xlink:href="/docs/sql-query?topic=sql-query-sql-reference#tableIdentifier" target="_top">
                    <path d="M210 31h0"/>
                    <path d="M350 31h0"/>
                    <rect x="210" y="20" width="140" height="22"/>
                    <text x="280" y="35">tableIdentifier</text>
                </a>
            </g>
            <path d="M350 31h10"/>
            <path d="M360 31h10"/>
            <g>
                <path d="M370 31h0"/>
                <path d="M414 31h0"/>
                <rect x="370" y="20" width="44" height="22" rx="10" ry="10"/>
                <text x="392" y="35">ADD</text>
            </g>
            <path d="M414 31h10"/>
            <path d="M424 31h10"/>
            <g>
                <path d="M434 31h0"/>
                <path d="M510 31h0"/>
                <rect x="434" y="20" width="76" height="22" rx="10" ry="10"/>
                <text x="472" y="35">COLUMNS</text>
            </g>
            <path d="M510 31h10"/>
            <path d="M520 31h10"/>
            <g>
                <path d="M530 31h0"/>
                <path d="M558 31h0"/>
                <rect x="530" y="20" width="28" height="22" rx="10" ry="10"/>
                <text x="544" y="35">(</text>
            </g>
            <path d="M558 31h10"/>
            <path d="M568 31h10"/>
            <g>
                <path d="M578 31h0"/>
                <path d="M766 31h0"/>
                <path d="M578 31h10"/>
                <g>
                    <path d="M588 31h0"/>
                    <path d="M756 31h0"/>
                    <path d="M588 31h10"/>
                    <g>
                        <a xlink:href="/docs/sql-query?topic=sql-query-sql-reference#columnDefinition" target="_top">
                            <path d="M598 31h0"/>
                            <path d="M746 31h0"/>
                            <rect x="598" y="20" width="148" height="22"/>
                            <text x="672" y="35">columnDefinition</text>
                        </a>
                    </g>
                    <path d="M746 31h10"/>
                </g>
                <path d="M756 31h10"/>
                <path d="M588 31a10 10 0 0 0 -10 10v10a10 10 0 0 0 10 10"/>
                <g>
                    <path d="M588 61h60"/>
                    <path d="M696 61h60"/>
                    <path d="M648 61h10"/>
                    <g>
                        <path d="M658 61h0"/>
                        <path d="M686 61h0"/>
                        <rect x="658" y="50" width="28" height="22" rx="10" ry="10"/>
                        <text x="672" y="65">,</text>
                    </g>
                    <path d="M686 61h10"/>
                </g>
                <path d="M756 61a10 10 0 0 0 10 -10v-10a10 10 0 0 0 -10 -10"/>
            </g>
            <path d="M766 31h10"/>
            <path d="M776 31h10"/>
            <g>
                <path d="M786 31h0"/>
                <path d="M814 31h0"/>
                <rect x="786" y="20" width="28" height="22" rx="10" ry="10"/>
                <text x="800" y="35">)</text>
            </g>
            <path d="M814 31h10"/>
        </g>
        <path d="M 824 31 h 20 m -10 -10 v 20 m 10 -20 v 20"/>
    </g>
</svg>