<?xml version="1.0" standalone="no"?>
<!DOCTYPE svg PUBLIC "-//W3C//DTD SVG 1.1//EN"
  "http://www.w3.org/Graphics/SVG/1.1/DTD/svg11.dtd">
<svg xmlns="http://www.w3.org/2000/svg" version="1.1" class="railroad-diagram" width="529" height="72" viewBox="0 0 529 72" xmlns:xlink="http://www.w3.org/1999/xlink">
    <defs>
        <style type="text/css"><![CDATA[ svg.railroad-diagram {
  background-color: #ffffff;
}
svg.railroad-diagram path {
  stroke-width: 2;
  stroke: #5a6872;
  fill: none;
}
svg.railroad-diagram text {
  font-size: 14px;
  font-family: 'ibm-plex-mono', 'Menlo', 'DejaVu Sans Mono', 'Bitstream Vera Sans Mono', Courier, monospace;
  color: #152935;
  text-anchor: middle;
  cursor: pointer;
}
svg.railroad-diagram text.label {
  text-anchor: start;
}
svg.railroad-diagram text.comment {
  font-size: 12px;
}
svg.railroad-diagram rect {
  stroke-width: 2;
  stroke:  #5a6872;
  fill: #5aaafa;
}
 ]]></style>
    </defs>
    <g transform="translate(.5 .5)">
        <path d="M 20 31 v 20 m 10 -20 v 20 m -10 -10 h 20.5"/>
        <g>
            <path d="M40 41h0"/>
            <path d="M488 41h0"/>
            <path d="M40 41h10"/>
            <g>
                <a xlink:href="#identifier">
                    <path d="M50 41h0"/>
                    <path d="M150 41h0"/>
                    <rect x="50" y="30" width="100" height="22"/>
                    <text x="100" y="45">identifier</text>
                </a>
            </g>
            <path d="M150 41h10"/>
            <path d="M160 41h10"/>
            <g>
                <a xlink:href="#dataType">
                    <path d="M170 41h0"/>
                    <path d="M254 41h0"/>
                    <rect x="170" y="30" width="84" height="22"/>
                    <text x="212" y="45">dataType</text>
                </a>
            </g>
            <path d="M254 41h10"/>
            <g>
                <path d="M264 41h0"/>
                <path d="M488 41h0"/>
                <path d="M264 41a10 10 0 0 0 10 -10v0a10 10 0 0 1 10 -10"/>
                <g>
                    <path d="M284 21h184"/>
                </g>
                <path d="M468 21a10 10 0 0 1 10 10v0a10 10 0 0 0 10 10"/>
                <path d="M264 41h20"/>
                <g>
                    <path d="M284 41h0"/>
                    <path d="M468 41h0"/>
                    <path d="M284 41h10"/>
                    <g>
                        <path d="M294 41h0"/>
                        <path d="M370 41h0"/>
                        <rect x="294" y="30" width="76" height="22" rx="10" ry="10"/>
                        <text x="332" y="45">COMMENT</text>
                    </g>
                    <path d="M370 41h10"/>
                    <path d="M380 41h10"/>
                    <g>
                        <a xlink:href="#STRING">
                            <path d="M390 41h0"/>
                            <path d="M458 41h0"/>
                            <rect x="390" y="30" width="68" height="22"/>
                            <text x="424" y="45">STRING</text>
                        </a>
                    </g>
                    <path d="M458 41h10"/>
                </g>
                <path d="M468 41h20"/>
            </g>
        </g>
        <path d="M 488 41 h 20 m -10 -10 v 20 m 10 -20 v 20"/>
    </g>
</svg>