<?xml version="1.0" standalone="no"?>
<!DOCTYPE svg PUBLIC "-//W3C//DTD SVG 1.1//EN"
  "http://www.w3.org/Graphics/SVG/1.1/DTD/svg11.dtd">
<svg xmlns="http://www.w3.org/2000/svg" version="1.1" class="railroad-diagram" width="405" height="102" viewBox="0 0 405 102" xmlns:xlink="http://www.w3.org/1999/xlink" preserveAspectRatio="xMinYMin meet">
    <defs>
        <style type="text/css"><![CDATA[ svg.railroad-diagram {
  background-color: #ffffff;
}
svg.railroad-diagram path {
  stroke-width: 2;
  stroke: #5a6872;
  fill: none;
}
svg.railroad-diagram text {
  font-size: 14px;
  font-family: 'ibm-plex-mono', 'Menlo', 'DejaVu Sans Mono', 'Bitstream Vera Sans Mono', Courier, monospace;
  color: #152935;
  text-anchor: middle;
  cursor: pointer;
}
svg.railroad-diagram text.label {
  text-anchor: start;
}
svg.railroad-diagram text.comment {
  font-size: 12px;
}
svg.railroad-diagram rect {
  stroke-width: 2;
  stroke:  #5a6872;
  fill: #5aaafa;
}
 ]]></style>
    </defs>
    <g transform="translate(.5 .5)">
        <path d="M 20 21 v 20 m 10 -20 v 20 m -10 -10 h 20.5"/>
        <g>
            <path d="M40 31h0"/>
            <path d="M364 31h0"/>
            <path d="M40 31h20"/>
            <g>
                <a xlink:href="/docs/sql-query?topic=sql-query-sql-reference#ddlWithoutOutput" target="_top">
                    <path d="M60 31h68"/>
                    <path d="M276 31h68"/>
                    <rect x="128" y="20" width="148" height="22"/>
                    <text x="202" y="35">ddlWithoutOutput</text>
                </a>
            </g>
            <path d="M344 31h20"/>
            <path d="M40 31a10 10 0 0 1 10 10v20a10 10 0 0 0 10 10"/>
            <g>
                <path d="M60 71h0"/>
                <path d="M344 71h0"/>
                <path d="M60 71h10"/>
                <g>
                    <a xlink:href="/docs/sql-query?topic=sql-query-sql-reference#ddlWithOutput" target="_top">
                        <path d="M70 71h0"/>
                        <path d="M194 71h0"/>
                        <rect x="70" y="60" width="124" height="22"/>
                        <text x="132" y="75">ddlWithOutput</text>
                    </a>
                </g>
                <path d="M194 71h10"/>
                <g>
                    <path d="M204 71h0"/>
                    <path d="M344 71h0"/>
                    <path d="M204 71a10 10 0 0 0 10 -10v0a10 10 0 0 1 10 -10"/>
                    <g>
                        <path d="M224 51h100"/>
                    </g>
                    <path d="M324 51a10 10 0 0 1 10 10v0a10 10 0 0 0 10 10"/>
                    <path d="M204 71h20"/>
                    <g>
                        <a xlink:href="/docs/sql-query?topic=sql-query-sql-reference#intoClause" target="_top">
                            <path d="M224 71h0"/>
                            <path d="M324 71h0"/>
                            <rect x="224" y="60" width="100" height="22"/>
                            <text x="274" y="75">intoClause</text>
                        </a>
                    </g>
                    <path d="M324 71h20"/>
                </g>
            </g>
            <path d="M344 71a10 10 0 0 0 10 -10v-20a10 10 0 0 1 10 -10"/>
        </g>
        <path d="M 364 31 h 20 m -10 -10 v 20 m 10 -20 v 20"/>
    </g>
</svg>