<?xml version="1.0" standalone="no"?>
<!DOCTYPE svg PUBLIC "-//W3C//DTD SVG 1.1//EN"
  "http://www.w3.org/Graphics/SVG/1.1/DTD/svg11.dtd">
<svg xmlns="http://www.w3.org/2000/svg" version="1.1" class="railroad-diagram" width="301" height="242" viewBox="0 0 301 242" xmlns:xlink="http://www.w3.org/1999/xlink" preserveAspectRatio="xMinYMin meet">
    <defs>
        <style type="text/css"><![CDATA[ svg.railroad-diagram {
  background-color: #ffffff;
}
svg.railroad-diagram path {
  stroke-width: 2;
  stroke: #5a6872;
  fill: none;
}
svg.railroad-diagram text {
  font-size: 14px;
  font-family: 'ibm-plex-mono', 'Menlo', 'DejaVu Sans Mono', 'Bitstream Vera Sans Mono', Courier, monospace;
  color: #152935;
  text-anchor: middle;
  cursor: pointer;
}
svg.railroad-diagram text.label {
  text-anchor: start;
}
svg.railroad-diagram text.comment {
  font-size: 12px;
}
svg.railroad-diagram rect {
  stroke-width: 2;
  stroke:  #5a6872;
  fill: #5aaafa;
}
 ]]></style>
    </defs>
    <g transform="translate(.5 .5)">
        <path d="M 20 21 v 20 m 10 -20 v 20 m -10 -10 h 20.5"/>
        <g>
            <path d="M40 31h0"/>
            <path d="M260 31h0"/>
            <path d="M40 31h20"/>
            <g>
                <a xlink:href="/docs/sql-query?topic=sql-query-sql-reference#createTable" target="_top">
                    <path d="M60 31h36"/>
                    <path d="M204 31h36"/>
                    <rect x="96" y="20" width="108" height="22"/>
                    <text x="150" y="35">createTable</text>
                </a>
            </g>
            <path d="M240 31h20"/>
            <path d="M40 31a10 10 0 0 1 10 10v10a10 10 0 0 0 10 10"/>
            <g>
                <a xlink:href="/docs/sql-query?topic=sql-query-sql-reference#createView" target="_top">
                    <path d="M60 61h40"/>
                    <path d="M200 61h40"/>
                    <rect x="100" y="50" width="100" height="22"/>
                    <text x="150" y="65">createView</text>
                </a>
            </g>
            <path d="M240 61a10 10 0 0 0 10 -10v-10a10 10 0 0 1 10 -10"/>
            <path d="M40 31a10 10 0 0 1 10 10v40a10 10 0 0 0 10 10"/>
            <g>
                <a xlink:href="/docs/sql-query?topic=sql-query-sql-reference#analyzeTable" target="_top">
                    <path d="M60 91h32"/>
                    <path d="M208 91h32"/>
                    <rect x="92" y="80" width="116" height="22"/>
                    <text x="150" y="95">analyzeTable</text>
                </a>
            </g>
            <path d="M240 91a10 10 0 0 0 10 -10v-40a10 10 0 0 1 10 -10"/>
            <path d="M40 31a10 10 0 0 1 10 10v70a10 10 0 0 0 10 10"/>
            <g>
                <a xlink:href="/docs/sql-query?topic=sql-query-sql-reference#alterTablePartitions" target="_top">
                    <path d="M60 121h0"/>
                    <path d="M240 121h0"/>
                    <rect x="60" y="110" width="180" height="22"/>
                    <text x="150" y="125">alterTablePartitions</text>
                </a>
            </g>
            <path d="M240 121a10 10 0 0 0 10 -10v-70a10 10 0 0 1 10 -10"/>
            <path d="M40 31a10 10 0 0 1 10 10v100a10 10 0 0 0 10 10"/>
            <g>
                <a xlink:href="/docs/sql-query?topic=sql-query-sql-reference#alterTableColumns" target="_top">
                    <path d="M60 151h12"/>
                    <path d="M228 151h12"/>
                    <rect x="72" y="140" width="156" height="22"/>
                    <text x="150" y="155">alterTableColumns</text>
                </a>
            </g>
            <path d="M240 151a10 10 0 0 0 10 -10v-100a10 10 0 0 1 10 -10"/>
            <path d="M40 31a10 10 0 0 1 10 10v130a10 10 0 0 0 10 10"/>
            <g>
                <a xlink:href="/docs/sql-query?topic=sql-query-sql-reference#dropTable" target="_top">
                    <path d="M60 181h44"/>
                    <path d="M196 181h44"/>
                    <rect x="104" y="170" width="92" height="22"/>
                    <text x="150" y="185">dropTable</text>
                </a>
            </g>
            <path d="M240 181a10 10 0 0 0 10 -10v-130a10 10 0 0 1 10 -10"/>
            <path d="M40 31a10 10 0 0 1 10 10v160a10 10 0 0 0 10 10"/>
            <g>
                <a xlink:href="/docs/sql-query?topic=sql-query-sql-reference#dropView" target="_top">
                    <path d="M60 211h48"/>
                    <path d="M192 211h48"/>
                    <rect x="108" y="200" width="84" height="22"/>
                    <text x="150" y="215">dropView</text>
                </a>
            </g>
            <path d="M240 211a10 10 0 0 0 10 -10v-160a10 10 0 0 1 10 -10"/>
        </g>
        <path d="M 260 31 h 20 m -10 -10 v 20 m 10 -20 v 20"/>
    </g>
</svg>