<?xml version="1.0" standalone="no"?>
<!DOCTYPE svg PUBLIC "-//W3C//DTD SVG 1.1//EN"
  "http://www.w3.org/Graphics/SVG/1.1/DTD/svg11.dtd">
<svg xmlns="http://www.w3.org/2000/svg" version="1.1" class="railroad-diagram" width="365" height="272" viewBox="0 0 365 272" xmlns:xlink="http://www.w3.org/1999/xlink" preserveAspectRatio="xMinYMin meet">
    <defs>
        <style type="text/css"><![CDATA[ svg.railroad-diagram {
  background-color: #ffffff;
}
svg.railroad-diagram path {
  stroke-width: 2;
  stroke: #5a6872;
  fill: none;
}
svg.railroad-diagram text {
  font-size: 14px;
  font-family: 'ibm-plex-mono', 'Menlo', 'DejaVu Sans Mono', 'Bitstream Vera Sans Mono', Courier, monospace;
  color: #152935;
  text-anchor: middle;
  cursor: pointer;
}
svg.railroad-diagram text.label {
  text-anchor: start;
}
svg.railroad-diagram text.comment {
  font-size: 12px;
}
svg.railroad-diagram rect {
  stroke-width: 2;
  stroke:  #5a6872;
  fill: #5aaafa;
}
 ]]></style>
    </defs>
    <g transform="translate(.5 .5)">
        <path d="M 20 21 v 20 m 10 -20 v 20 m -10 -10 h 20.5"/>
        <g>
            <path d="M40 31h0"/>
            <path d="M324 31h0"/>
            <path d="M40 31h20"/>
            <g>
                <a xlink:href="/docs/sql-query?topic=sql-query-sql-reference#createTable" target="_top">
                    <path d="M60 31h68"/>
                    <path d="M236 31h68"/>
                    <rect x="128" y="20" width="108" height="22"/>
                    <text x="182" y="35">createTable</text>
                </a>
            </g>
            <path d="M304 31h20"/>
            <path d="M40 31a10 10 0 0 1 10 10v10a10 10 0 0 0 10 10"/>
            <g>
                <a xlink:href="/docs/sql-query?topic=sql-query-sql-reference#createView" target="_top">
                    <path d="M60 61h72"/>
                    <path d="M232 61h72"/>
                    <rect x="132" y="50" width="100" height="22"/>
                    <text x="182" y="65">createView</text>
                </a>
            </g>
            <path d="M304 61a10 10 0 0 0 10 -10v-10a10 10 0 0 1 10 -10"/>
            <path d="M40 31a10 10 0 0 1 10 10v40a10 10 0 0 0 10 10"/>
            <g>
                <a xlink:href="/docs/sql-query?topic=sql-query-sql-reference#analyzeTable" target="_top">
                    <path d="M60 91h64"/>
                    <path d="M240 91h64"/>
                    <rect x="124" y="80" width="116" height="22"/>
                    <text x="182" y="95">analyzeTable</text>
                </a>
            </g>
            <path d="M304 91a10 10 0 0 0 10 -10v-40a10 10 0 0 1 10 -10"/>
            <path d="M40 31a10 10 0 0 1 10 10v70a10 10 0 0 0 10 10"/>
            <g>
                <a xlink:href="/docs/sql-query?topic=sql-query-sql-reference#alterTablePartitions" target="_top">
                    <path d="M60 121h32"/>
                    <path d="M272 121h32"/>
                    <rect x="92" y="110" width="180" height="22"/>
                    <text x="182" y="125">alterTablePartitions</text>
                </a>
            </g>
            <path d="M304 121a10 10 0 0 0 10 -10v-70a10 10 0 0 1 10 -10"/>
            <path d="M40 31a10 10 0 0 1 10 10v100a10 10 0 0 0 10 10"/>
            <g>
                <a xlink:href="/docs/sql-query?topic=sql-query-sql-reference#alterTableColumns" target="_top">
                    <path d="M60 151h44"/>
                    <path d="M260 151h44"/>
                    <rect x="104" y="140" width="156" height="22"/>
                    <text x="182" y="155">alterTableColumns</text>
                </a>
            </g>
            <path d="M304 151a10 10 0 0 0 10 -10v-100a10 10 0 0 1 10 -10"/>
            <path d="M40 31a10 10 0 0 1 10 10v130a10 10 0 0 0 10 10"/>
            <g>
                <a xlink:href="/docs/sql-query?topic=sql-query-sql-reference#alterTableSetTableProperties" target="_top">
                    <path d="M60 181h0"/>
                    <path d="M304 181h0"/>
                    <rect x="60" y="170" width="244" height="22"/>
                    <text x="182" y="185">alterTableSetTableProperties</text>
                </a>
            </g>
            <path d="M304 181a10 10 0 0 0 10 -10v-130a10 10 0 0 1 10 -10"/>
            <path d="M40 31a10 10 0 0 1 10 10v160a10 10 0 0 0 10 10"/>
            <g>
                <a xlink:href="/docs/sql-query?topic=sql-query-sql-reference#dropTable" target="_top">
                    <path d="M60 211h76"/>
                    <path d="M228 211h76"/>
                    <rect x="136" y="200" width="92" height="22"/>
                    <text x="182" y="215">dropTable</text>
                </a>
            </g>
            <path d="M304 211a10 10 0 0 0 10 -10v-160a10 10 0 0 1 10 -10"/>
            <path d="M40 31a10 10 0 0 1 10 10v190a10 10 0 0 0 10 10"/>
            <g>
                <a xlink:href="/docs/sql-query?topic=sql-query-sql-reference#dropView" target="_top">
                    <path d="M60 241h80"/>
                    <path d="M224 241h80"/>
                    <rect x="140" y="230" width="84" height="22"/>
                    <text x="182" y="245">dropView</text>
                </a>
            </g>
            <path d="M304 241a10 10 0 0 0 10 -10v-190a10 10 0 0 1 10 -10"/>
        </g>
        <path d="M 324 31 h 20 m -10 -10 v 20 m 10 -20 v 20"/>
    </g>
</svg>