<?xml version="1.0" standalone="no"?>
<!DOCTYPE svg PUBLIC "-//W3C//DTD SVG 1.1//EN"
  "http://www.w3.org/Graphics/SVG/1.1/DTD/svg11.dtd">
<svg xmlns="http://www.w3.org/2000/svg" version="1.1" class="railroad-diagram" width="1161" height="452" viewBox="0 0 1161 452" xmlns:xlink="http://www.w3.org/1999/xlink">
    <defs>
        <style type="text/css"><![CDATA[ svg.railroad-diagram {
  background-color: #ffffff;
}
svg.railroad-diagram path {
  stroke-width: 2;
  stroke: #5a6872;
  fill: none;
}
svg.railroad-diagram text {
  font-size: 14px;
  font-family: 'ibm-plex-mono', 'Menlo', 'DejaVu Sans Mono', 'Bitstream Vera Sans Mono', Courier, monospace;
  color: #152935;
  text-anchor: middle;
  cursor: pointer;
}
svg.railroad-diagram text.label {
  text-anchor: start;
}
svg.railroad-diagram text.comment {
  font-size: 12px;
}
svg.railroad-diagram rect {
  stroke-width: 2;
  stroke:  #5a6872;
  fill: #5aaafa;
}
 ]]></style>
    </defs>
    <g transform="translate(.5 .5)">
        <path d="M 20 21 v 20 m 10 -20 v 20 m -10 -10 h 20.5"/>
        <g>
            <path d="M40 31h0"/>
            <path d="M1120 31h0"/>
            <path d="M40 31h20"/>
            <g>
                <path d="M60 31h220"/>
                <path d="M880 31h220"/>
                <path d="M280 31h10"/>
                <g>
                    <path d="M290 31h0"/>
                    <path d="M406 31h0"/>
                    <rect x="290" y="20" width="116" height="22" rx="10" ry="10"/>
                    <text x="348" y="35">TS_ANCHOR_EQ</text>
                </g>
                <path d="M406 31h10"/>
                <path d="M416 31h10"/>
                <g>
                    <path d="M426 31h0"/>
                    <path d="M454 31h0"/>
                    <rect x="426" y="20" width="28" height="22" rx="10" ry="10"/>
                    <text x="440" y="35">(</text>
                </g>
                <path d="M454 31h10"/>
                <path d="M464 31h10"/>
                <g>
                    <a xlink:href="#deprecatedAnchorTimeSeriesExpressionParam">
                        <path d="M474 31h0"/>
                        <path d="M822 31h0"/>
                        <rect x="474" y="20" width="348" height="22"/>
                        <text x="648" y="35">deprecatedAnchorTimeSeriesExpressionParam</text>
                    </a>
                </g>
                <path d="M822 31h10"/>
                <path d="M832 31h10"/>
                <g>
                    <path d="M842 31h0"/>
                    <path d="M870 31h0"/>
                    <rect x="842" y="20" width="28" height="22" rx="10" ry="10"/>
                    <text x="856" y="35">)</text>
                </g>
                <path d="M870 31h10"/>
            </g>
            <path d="M1100 31h20"/>
            <path d="M40 31a10 10 0 0 1 10 10v10a10 10 0 0 0 10 10"/>
            <g>
                <path d="M60 61h196"/>
                <path d="M904 61h196"/>
                <path d="M256 61h10"/>
                <g>
                    <path d="M266 61h0"/>
                    <path d="M430 61h0"/>
                    <rect x="266" y="50" width="164" height="22" rx="10" ry="10"/>
                    <text x="348" y="65">TS_ANCHOR_CONTAINS</text>
                </g>
                <path d="M430 61h10"/>
                <path d="M440 61h10"/>
                <g>
                    <path d="M450 61h0"/>
                    <path d="M478 61h0"/>
                    <rect x="450" y="50" width="28" height="22" rx="10" ry="10"/>
                    <text x="464" y="65">(</text>
                </g>
                <path d="M478 61h10"/>
                <path d="M488 61h10"/>
                <g>
                    <a xlink:href="#deprecatedAnchorTimeSeriesExpressionParam">
                        <path d="M498 61h0"/>
                        <path d="M846 61h0"/>
                        <rect x="498" y="50" width="348" height="22"/>
                        <text x="672" y="65">deprecatedAnchorTimeSeriesExpressionParam</text>
                    </a>
                </g>
                <path d="M846 61h10"/>
                <path d="M856 61h10"/>
                <g>
                    <path d="M866 61h0"/>
                    <path d="M894 61h0"/>
                    <rect x="866" y="50" width="28" height="22" rx="10" ry="10"/>
                    <text x="880" y="65">)</text>
                </g>
                <path d="M894 61h10"/>
            </g>
            <path d="M1100 61a10 10 0 0 0 10 -10v-10a10 10 0 0 1 10 -10"/>
            <path d="M40 31a10 10 0 0 1 10 10v40a10 10 0 0 0 10 10"/>
            <g>
                <path d="M60 91h180"/>
                <path d="M920 91h180"/>
                <path d="M240 91h10"/>
                <g>
                    <path d="M250 91h0"/>
                    <path d="M446 91h0"/>
                    <rect x="250" y="80" width="196" height="22" rx="10" ry="10"/>
                    <text x="348" y="95">TS_ANCHOR_CONTAINED_IN</text>
                </g>
                <path d="M446 91h10"/>
                <path d="M456 91h10"/>
                <g>
                    <path d="M466 91h0"/>
                    <path d="M494 91h0"/>
                    <rect x="466" y="80" width="28" height="22" rx="10" ry="10"/>
                    <text x="480" y="95">(</text>
                </g>
                <path d="M494 91h10"/>
                <path d="M504 91h10"/>
                <g>
                    <a xlink:href="#deprecatedAnchorTimeSeriesExpressionParam">
                        <path d="M514 91h0"/>
                        <path d="M862 91h0"/>
                        <rect x="514" y="80" width="348" height="22"/>
                        <text x="688" y="95">deprecatedAnchorTimeSeriesExpressionParam</text>
                    </a>
                </g>
                <path d="M862 91h10"/>
                <path d="M872 91h10"/>
                <g>
                    <path d="M882 91h0"/>
                    <path d="M910 91h0"/>
                    <rect x="882" y="80" width="28" height="22" rx="10" ry="10"/>
                    <text x="896" y="95">)</text>
                </g>
                <path d="M910 91h10"/>
            </g>
            <path d="M1100 91a10 10 0 0 0 10 -10v-40a10 10 0 0 1 10 -10"/>
            <path d="M40 31a10 10 0 0 1 10 10v70a10 10 0 0 0 10 10"/>
            <g>
                <path d="M60 121h184"/>
                <path d="M916 121h184"/>
                <path d="M244 121h10"/>
                <g>
                    <path d="M254 121h0"/>
                    <path d="M442 121h0"/>
                    <rect x="254" y="110" width="188" height="22" rx="10" ry="10"/>
                    <text x="348" y="125">TS_ANCHOR_STARTS_WITH</text>
                </g>
                <path d="M442 121h10"/>
                <path d="M452 121h10"/>
                <g>
                    <path d="M462 121h0"/>
                    <path d="M490 121h0"/>
                    <rect x="462" y="110" width="28" height="22" rx="10" ry="10"/>
                    <text x="476" y="125">(</text>
                </g>
                <path d="M490 121h10"/>
                <path d="M500 121h10"/>
                <g>
                    <a xlink:href="#deprecatedAnchorTimeSeriesExpressionParam">
                        <path d="M510 121h0"/>
                        <path d="M858 121h0"/>
                        <rect x="510" y="110" width="348" height="22"/>
                        <text x="684" y="125">deprecatedAnchorTimeSeriesExpressionParam</text>
                    </a>
                </g>
                <path d="M858 121h10"/>
                <path d="M868 121h10"/>
                <g>
                    <path d="M878 121h0"/>
                    <path d="M906 121h0"/>
                    <rect x="878" y="110" width="28" height="22" rx="10" ry="10"/>
                    <text x="892" y="125">)</text>
                </g>
                <path d="M906 121h10"/>
            </g>
            <path d="M1100 121a10 10 0 0 0 10 -10v-70a10 10 0 0 1 10 -10"/>
            <path d="M40 31a10 10 0 0 1 10 10v100a10 10 0 0 0 10 10"/>
            <g>
                <path d="M60 151h192"/>
                <path d="M908 151h192"/>
                <path d="M252 151h10"/>
                <g>
                    <path d="M262 151h0"/>
                    <path d="M434 151h0"/>
                    <rect x="262" y="140" width="172" height="22" rx="10" ry="10"/>
                    <text x="348" y="155">TS_ANCHOR_ENDS_WITH</text>
                </g>
                <path d="M434 151h10"/>
                <path d="M444 151h10"/>
                <g>
                    <path d="M454 151h0"/>
                    <path d="M482 151h0"/>
                    <rect x="454" y="140" width="28" height="22" rx="10" ry="10"/>
                    <text x="468" y="155">(</text>
                </g>
                <path d="M482 151h10"/>
                <path d="M492 151h10"/>
                <g>
                    <a xlink:href="#deprecatedAnchorTimeSeriesExpressionParam">
                        <path d="M502 151h0"/>
                        <path d="M850 151h0"/>
                        <rect x="502" y="140" width="348" height="22"/>
                        <text x="676" y="155">deprecatedAnchorTimeSeriesExpressionParam</text>
                    </a>
                </g>
                <path d="M850 151h10"/>
                <path d="M860 151h10"/>
                <g>
                    <path d="M870 151h0"/>
                    <path d="M898 151h0"/>
                    <rect x="870" y="140" width="28" height="22" rx="10" ry="10"/>
                    <text x="884" y="155">)</text>
                </g>
                <path d="M898 151h10"/>
            </g>
            <path d="M1100 151a10 10 0 0 0 10 -10v-100a10 10 0 0 1 10 -10"/>
            <path d="M40 31a10 10 0 0 1 10 10v130a10 10 0 0 0 10 10"/>
            <g>
                <path d="M60 181h220"/>
                <path d="M880 181h220"/>
                <path d="M280 181h10"/>
                <g>
                    <path d="M290 181h0"/>
                    <path d="M406 181h0"/>
                    <rect x="290" y="170" width="116" height="22" rx="10" ry="10"/>
                    <text x="348" y="185">TS_ANCHOR_GT</text>
                </g>
                <path d="M406 181h10"/>
                <path d="M416 181h10"/>
                <g>
                    <path d="M426 181h0"/>
                    <path d="M454 181h0"/>
                    <rect x="426" y="170" width="28" height="22" rx="10" ry="10"/>
                    <text x="440" y="185">(</text>
                </g>
                <path d="M454 181h10"/>
                <path d="M464 181h10"/>
                <g>
                    <a xlink:href="#deprecatedAnchorTimeSeriesExpressionParam">
                        <path d="M474 181h0"/>
                        <path d="M822 181h0"/>
                        <rect x="474" y="170" width="348" height="22"/>
                        <text x="648" y="185">deprecatedAnchorTimeSeriesExpressionParam</text>
                    </a>
                </g>
                <path d="M822 181h10"/>
                <path d="M832 181h10"/>
                <g>
                    <path d="M842 181h0"/>
                    <path d="M870 181h0"/>
                    <rect x="842" y="170" width="28" height="22" rx="10" ry="10"/>
                    <text x="856" y="185">)</text>
                </g>
                <path d="M870 181h10"/>
            </g>
            <path d="M1100 181a10 10 0 0 0 10 -10v-130a10 10 0 0 1 10 -10"/>
            <path d="M40 31a10 10 0 0 1 10 10v160a10 10 0 0 0 10 10"/>
            <g>
                <path d="M60 211h216"/>
                <path d="M884 211h216"/>
                <path d="M276 211h10"/>
                <g>
                    <path d="M286 211h0"/>
                    <path d="M410 211h0"/>
                    <rect x="286" y="200" width="124" height="22" rx="10" ry="10"/>
                    <text x="348" y="215">TS_ANCHOR_GTE</text>
                </g>
                <path d="M410 211h10"/>
                <path d="M420 211h10"/>
                <g>
                    <path d="M430 211h0"/>
                    <path d="M458 211h0"/>
                    <rect x="430" y="200" width="28" height="22" rx="10" ry="10"/>
                    <text x="444" y="215">(</text>
                </g>
                <path d="M458 211h10"/>
                <path d="M468 211h10"/>
                <g>
                    <a xlink:href="#deprecatedAnchorTimeSeriesExpressionParam">
                        <path d="M478 211h0"/>
                        <path d="M826 211h0"/>
                        <rect x="478" y="200" width="348" height="22"/>
                        <text x="652" y="215">deprecatedAnchorTimeSeriesExpressionParam</text>
                    </a>
                </g>
                <path d="M826 211h10"/>
                <path d="M836 211h10"/>
                <g>
                    <path d="M846 211h0"/>
                    <path d="M874 211h0"/>
                    <rect x="846" y="200" width="28" height="22" rx="10" ry="10"/>
                    <text x="860" y="215">)</text>
                </g>
                <path d="M874 211h10"/>
            </g>
            <path d="M1100 211a10 10 0 0 0 10 -10v-160a10 10 0 0 1 10 -10"/>
            <path d="M40 31a10 10 0 0 1 10 10v190a10 10 0 0 0 10 10"/>
            <g>
                <path d="M60 241h220"/>
                <path d="M880 241h220"/>
                <path d="M280 241h10"/>
                <g>
                    <path d="M290 241h0"/>
                    <path d="M406 241h0"/>
                    <rect x="290" y="230" width="116" height="22" rx="10" ry="10"/>
                    <text x="348" y="245">TS_ANCHOR_LT</text>
                </g>
                <path d="M406 241h10"/>
                <path d="M416 241h10"/>
                <g>
                    <path d="M426 241h0"/>
                    <path d="M454 241h0"/>
                    <rect x="426" y="230" width="28" height="22" rx="10" ry="10"/>
                    <text x="440" y="245">(</text>
                </g>
                <path d="M454 241h10"/>
                <path d="M464 241h10"/>
                <g>
                    <a xlink:href="#deprecatedAnchorTimeSeriesExpressionParam">
                        <path d="M474 241h0"/>
                        <path d="M822 241h0"/>
                        <rect x="474" y="230" width="348" height="22"/>
                        <text x="648" y="245">deprecatedAnchorTimeSeriesExpressionParam</text>
                    </a>
                </g>
                <path d="M822 241h10"/>
                <path d="M832 241h10"/>
                <g>
                    <path d="M842 241h0"/>
                    <path d="M870 241h0"/>
                    <rect x="842" y="230" width="28" height="22" rx="10" ry="10"/>
                    <text x="856" y="245">)</text>
                </g>
                <path d="M870 241h10"/>
            </g>
            <path d="M1100 241a10 10 0 0 0 10 -10v-190a10 10 0 0 1 10 -10"/>
            <path d="M40 31a10 10 0 0 1 10 10v220a10 10 0 0 0 10 10"/>
            <g>
                <path d="M60 271h216"/>
                <path d="M884 271h216"/>
                <path d="M276 271h10"/>
                <g>
                    <path d="M286 271h0"/>
                    <path d="M410 271h0"/>
                    <rect x="286" y="260" width="124" height="22" rx="10" ry="10"/>
                    <text x="348" y="275">TS_ANCHOR_LTE</text>
                </g>
                <path d="M410 271h10"/>
                <path d="M420 271h10"/>
                <g>
                    <path d="M430 271h0"/>
                    <path d="M458 271h0"/>
                    <rect x="430" y="260" width="28" height="22" rx="10" ry="10"/>
                    <text x="444" y="275">(</text>
                </g>
                <path d="M458 271h10"/>
                <path d="M468 271h10"/>
                <g>
                    <a xlink:href="#deprecatedAnchorTimeSeriesExpressionParam">
                        <path d="M478 271h0"/>
                        <path d="M826 271h0"/>
                        <rect x="478" y="260" width="348" height="22"/>
                        <text x="652" y="275">deprecatedAnchorTimeSeriesExpressionParam</text>
                    </a>
                </g>
                <path d="M826 271h10"/>
                <path d="M836 271h10"/>
                <g>
                    <path d="M846 271h0"/>
                    <path d="M874 271h0"/>
                    <rect x="846" y="260" width="28" height="22" rx="10" ry="10"/>
                    <text x="860" y="275">)</text>
                </g>
                <path d="M874 271h10"/>
            </g>
            <path d="M1100 271a10 10 0 0 0 10 -10v-220a10 10 0 0 1 10 -10"/>
            <path d="M40 31a10 10 0 0 1 10 10v250a10 10 0 0 0 10 10"/>
            <g>
                <path d="M60 301h180"/>
                <path d="M920 301h180"/>
                <path d="M240 301h10"/>
                <g>
                    <path d="M250 301h0"/>
                    <path d="M446 301h0"/>
                    <rect x="250" y="290" width="196" height="22" rx="10" ry="10"/>
                    <text x="348" y="305">TS_ANCHOR_DIVISIBLE_BY</text>
                </g>
                <path d="M446 301h10"/>
                <path d="M456 301h10"/>
                <g>
                    <path d="M466 301h0"/>
                    <path d="M494 301h0"/>
                    <rect x="466" y="290" width="28" height="22" rx="10" ry="10"/>
                    <text x="480" y="305">(</text>
                </g>
                <path d="M494 301h10"/>
                <path d="M504 301h10"/>
                <g>
                    <a xlink:href="#deprecatedAnchorTimeSeriesExpressionParam">
                        <path d="M514 301h0"/>
                        <path d="M862 301h0"/>
                        <rect x="514" y="290" width="348" height="22"/>
                        <text x="688" y="305">deprecatedAnchorTimeSeriesExpressionParam</text>
                    </a>
                </g>
                <path d="M862 301h10"/>
                <path d="M872 301h10"/>
                <g>
                    <path d="M882 301h0"/>
                    <path d="M910 301h0"/>
                    <rect x="882" y="290" width="28" height="22" rx="10" ry="10"/>
                    <text x="896" y="305">)</text>
                </g>
                <path d="M910 301h10"/>
            </g>
            <path d="M1100 301a10 10 0 0 0 10 -10v-250a10 10 0 0 1 10 -10"/>
            <path d="M40 31a10 10 0 0 1 10 10v280a10 10 0 0 0 10 10"/>
            <g>
                <path d="M60 331h8"/>
                <path d="M1092 331h8"/>
                <path d="M68 331h10"/>
                <g>
                    <path d="M78 331h0"/>
                    <path d="M202 331h0"/>
                    <rect x="78" y="320" width="124" height="22" rx="10" ry="10"/>
                    <text x="140" y="335">TS_ANCHOR_AND</text>
                </g>
                <path d="M202 331h10"/>
                <path d="M212 331h10"/>
                <g>
                    <path d="M222 331h0"/>
                    <path d="M250 331h0"/>
                    <rect x="222" y="320" width="28" height="22" rx="10" ry="10"/>
                    <text x="236" y="335">(</text>
                </g>
                <path d="M250 331h10"/>
                <path d="M260 331h10"/>
                <g>
                    <a xlink:href="#deprecatedInnerAnchorTimeSeriesExpression">
                        <path d="M270 331h0"/>
                        <path d="M618 331h0"/>
                        <rect x="270" y="320" width="348" height="22"/>
                        <text x="444" y="335">deprecatedInnerAnchorTimeSeriesExpression</text>
                    </a>
                </g>
                <path d="M618 331h10"/>
                <path d="M628 331h10"/>
                <g>
                    <path d="M638 331h0"/>
                    <path d="M666 331h0"/>
                    <rect x="638" y="320" width="28" height="22" rx="10" ry="10"/>
                    <text x="652" y="335">,</text>
                </g>
                <path d="M666 331h10"/>
                <path d="M676 331h10"/>
                <g>
                    <a xlink:href="#deprecatedInnerAnchorTimeSeriesExpression">
                        <path d="M686 331h0"/>
                        <path d="M1034 331h0"/>
                        <rect x="686" y="320" width="348" height="22"/>
                        <text x="860" y="335">deprecatedInnerAnchorTimeSeriesExpression</text>
                    </a>
                </g>
                <path d="M1034 331h10"/>
                <path d="M1044 331h10"/>
                <g>
                    <path d="M1054 331h0"/>
                    <path d="M1082 331h0"/>
                    <rect x="1054" y="320" width="28" height="22" rx="10" ry="10"/>
                    <text x="1068" y="335">)</text>
                </g>
                <path d="M1082 331h10"/>
            </g>
            <path d="M1100 331a10 10 0 0 0 10 -10v-280a10 10 0 0 1 10 -10"/>
            <path d="M40 31a10 10 0 0 1 10 10v310a10 10 0 0 0 10 10"/>
            <g>
                <path d="M60 361h12"/>
                <path d="M1088 361h12"/>
                <path d="M72 361h10"/>
                <g>
                    <path d="M82 361h0"/>
                    <path d="M198 361h0"/>
                    <rect x="82" y="350" width="116" height="22" rx="10" ry="10"/>
                    <text x="140" y="365">TS_ANCHOR_OR</text>
                </g>
                <path d="M198 361h10"/>
                <path d="M208 361h10"/>
                <g>
                    <path d="M218 361h0"/>
                    <path d="M246 361h0"/>
                    <rect x="218" y="350" width="28" height="22" rx="10" ry="10"/>
                    <text x="232" y="365">(</text>
                </g>
                <path d="M246 361h10"/>
                <path d="M256 361h10"/>
                <g>
                    <a xlink:href="#deprecatedInnerAnchorTimeSeriesExpression">
                        <path d="M266 361h0"/>
                        <path d="M614 361h0"/>
                        <rect x="266" y="350" width="348" height="22"/>
                        <text x="440" y="365">deprecatedInnerAnchorTimeSeriesExpression</text>
                    </a>
                </g>
                <path d="M614 361h10"/>
                <path d="M624 361h10"/>
                <g>
                    <path d="M634 361h0"/>
                    <path d="M662 361h0"/>
                    <rect x="634" y="350" width="28" height="22" rx="10" ry="10"/>
                    <text x="648" y="365">,</text>
                </g>
                <path d="M662 361h10"/>
                <path d="M672 361h10"/>
                <g>
                    <a xlink:href="#deprecatedInnerAnchorTimeSeriesExpression">
                        <path d="M682 361h0"/>
                        <path d="M1030 361h0"/>
                        <rect x="682" y="350" width="348" height="22"/>
                        <text x="856" y="365">deprecatedInnerAnchorTimeSeriesExpression</text>
                    </a>
                </g>
                <path d="M1030 361h10"/>
                <path d="M1040 361h10"/>
                <g>
                    <path d="M1050 361h0"/>
                    <path d="M1078 361h0"/>
                    <rect x="1050" y="350" width="28" height="22" rx="10" ry="10"/>
                    <text x="1064" y="365">)</text>
                </g>
                <path d="M1078 361h10"/>
            </g>
            <path d="M1100 361a10 10 0 0 0 10 -10v-310a10 10 0 0 1 10 -10"/>
            <path d="M40 31a10 10 0 0 1 10 10v340a10 10 0 0 0 10 10"/>
            <g>
                <path d="M60 391h216"/>
                <path d="M884 391h216"/>
                <path d="M276 391h10"/>
                <g>
                    <path d="M286 391h0"/>
                    <path d="M410 391h0"/>
                    <rect x="286" y="380" width="124" height="22" rx="10" ry="10"/>
                    <text x="348" y="395">TS_ANCHOR_NOT</text>
                </g>
                <path d="M410 391h10"/>
                <path d="M420 391h10"/>
                <g>
                    <path d="M430 391h0"/>
                    <path d="M458 391h0"/>
                    <rect x="430" y="380" width="28" height="22" rx="10" ry="10"/>
                    <text x="444" y="395">(</text>
                </g>
                <path d="M458 391h10"/>
                <path d="M468 391h10"/>
                <g>
                    <a xlink:href="#deprecatedInnerAnchorTimeSeriesExpression">
                        <path d="M478 391h0"/>
                        <path d="M826 391h0"/>
                        <rect x="478" y="380" width="348" height="22"/>
                        <text x="652" y="395">deprecatedInnerAnchorTimeSeriesExpression</text>
                    </a>
                </g>
                <path d="M826 391h10"/>
                <path d="M836 391h10"/>
                <g>
                    <path d="M846 391h0"/>
                    <path d="M874 391h0"/>
                    <rect x="846" y="380" width="28" height="22" rx="10" ry="10"/>
                    <text x="860" y="395">)</text>
                </g>
                <path d="M874 391h10"/>
            </g>
            <path d="M1100 391a10 10 0 0 0 10 -10v-340a10 10 0 0 1 10 -10"/>
            <path d="M40 31a10 10 0 0 1 10 10v370a10 10 0 0 0 10 10"/>
            <g>
                <path d="M60 421h0"/>
                <path d="M1100 421h0"/>
                <path d="M60 421h10"/>
                <g>
                    <path d="M70 421h0"/>
                    <path d="M210 421h0"/>
                    <rect x="70" y="410" width="140" height="22" rx="10" ry="10"/>
                    <text x="140" y="425">TS_ANCHOR_INDEX</text>
                </g>
                <path d="M210 421h10"/>
                <path d="M220 421h10"/>
                <g>
                    <path d="M230 421h0"/>
                    <path d="M258 421h0"/>
                    <rect x="230" y="410" width="28" height="22" rx="10" ry="10"/>
                    <text x="244" y="425">(</text>
                </g>
                <path d="M258 421h10"/>
                <path d="M268 421h10"/>
                <g>
                    <a xlink:href="#deprecatedInnerAnchorTimeSeriesExpression">
                        <path d="M278 421h0"/>
                        <path d="M626 421h0"/>
                        <rect x="278" y="410" width="348" height="22"/>
                        <text x="452" y="425">deprecatedInnerAnchorTimeSeriesExpression</text>
                    </a>
                </g>
                <path d="M626 421h10"/>
                <path d="M636 421h10"/>
                <g>
                    <path d="M646 421h0"/>
                    <path d="M674 421h0"/>
                    <rect x="646" y="410" width="28" height="22" rx="10" ry="10"/>
                    <text x="660" y="425">,</text>
                </g>
                <path d="M674 421h10"/>
                <path d="M684 421h10"/>
                <g>
                    <a xlink:href="#deprecatedAnchorTimeSeriesExpressionParam">
                        <path d="M694 421h0"/>
                        <path d="M1042 421h0"/>
                        <rect x="694" y="410" width="348" height="22"/>
                        <text x="868" y="425">deprecatedAnchorTimeSeriesExpressionParam</text>
                    </a>
                </g>
                <path d="M1042 421h10"/>
                <path d="M1052 421h10"/>
                <g>
                    <path d="M1062 421h0"/>
                    <path d="M1090 421h0"/>
                    <rect x="1062" y="410" width="28" height="22" rx="10" ry="10"/>
                    <text x="1076" y="425">)</text>
                </g>
                <path d="M1090 421h10"/>
            </g>
            <path d="M1100 421a10 10 0 0 0 10 -10v-370a10 10 0 0 1 10 -10"/>
        </g>
        <path d="M 1120 31 h 20 m -10 -10 v 20 m 10 -20 v 20"/>
    </g>
</svg>