<?xml version="1.0" standalone="no"?>
<!DOCTYPE svg PUBLIC "-//W3C//DTD SVG 1.1//EN"
  "http://www.w3.org/Graphics/SVG/1.1/DTD/svg11.dtd">
<svg xmlns="http://www.w3.org/2000/svg" version="1.1" class="railroad-diagram" width="653" height="92" viewBox="0 0 653 92" xmlns:xlink="http://www.w3.org/1999/xlink">
    <defs>
        <style type="text/css"><![CDATA[ svg.railroad-diagram {
  background-color: #ffffff;
}
svg.railroad-diagram path {
  stroke-width: 2;
  stroke: #5a6872;
  fill: none;
}
svg.railroad-diagram text {
  font-size: 14px;
  font-family: 'ibm-plex-mono', 'Menlo', 'DejaVu Sans Mono', 'Bitstream Vera Sans Mono', Courier, monospace;
  color: #152935;
  text-anchor: middle;
  cursor: pointer;
}
svg.railroad-diagram text.label {
  text-anchor: start;
}
svg.railroad-diagram text.comment {
  font-size: 12px;
}
svg.railroad-diagram rect {
  stroke-width: 2;
  stroke:  #5a6872;
  fill: #5aaafa;
}
 ]]></style>
    </defs>
    <g transform="translate(.5 .5)">
        <path d="M 20 21 v 20 m 10 -20 v 20 m -10 -10 h 20.5"/>
        <g>
            <path d="M40 31h0"/>
            <path d="M612 31h0"/>
            <path d="M40 31h10"/>
            <g>
                <path d="M50 31h0"/>
                <path d="M102 31h0"/>
                <rect x="50" y="20" width="52" height="22" rx="10" ry="10"/>
                <text x="76" y="35">EMIT</text>
            </g>
            <path d="M102 31h10"/>
            <path d="M112 31h10"/>
            <g>
                <path d="M122 31h0"/>
                <path d="M174 31h0"/>
                <rect x="122" y="20" width="52" height="22" rx="10" ry="10"/>
                <text x="148" y="35">INTO</text>
            </g>
            <path d="M174 31h10"/>
            <g>
                <path d="M184 31h0"/>
                <path d="M364 31h0"/>
                <path d="M184 31h20"/>
                <g>
                    <a xlink:href="#cosResultClause">
                        <path d="M204 31h0"/>
                        <path d="M344 31h0"/>
                        <rect x="204" y="20" width="140" height="22"/>
                        <text x="274" y="35">cosResultClause</text>
                    </a>
                </g>
                <path d="M344 31h20"/>
                <path d="M184 31a10 10 0 0 1 10 10v10a10 10 0 0 0 10 10"/>
                <g>
                    <a xlink:href="#dbResultClause">
                        <path d="M204 61h4"/>
                        <path d="M340 61h4"/>
                        <rect x="208" y="50" width="132" height="22"/>
                        <text x="274" y="65">dbResultClause</text>
                    </a>
                </g>
                <path d="M344 61a10 10 0 0 0 10 -10v-10a10 10 0 0 1 10 -10"/>
            </g>
            <path d="M364 31h10"/>
            <g>
                <path d="M374 31h0"/>
                <path d="M450 31h0"/>
                <rect x="374" y="20" width="76" height="22" rx="10" ry="10"/>
                <text x="412" y="35">EXECUTE</text>
            </g>
            <path d="M450 31h10"/>
            <path d="M460 31h10"/>
            <g>
                <path d="M470 31h0"/>
                <path d="M506 31h0"/>
                <rect x="470" y="20" width="36" height="22" rx="10" ry="10"/>
                <text x="488" y="35">AS</text>
            </g>
            <path d="M506 31h10"/>
            <path d="M516 31h10"/>
            <g>
                <a xlink:href="#CRN_URI">
                    <path d="M526 31h0"/>
                    <path d="M602 31h0"/>
                    <rect x="526" y="20" width="76" height="22"/>
                    <text x="564" y="35">CRN_URI</text>
                </a>
            </g>
            <path d="M602 31h10"/>
        </g>
        <path d="M 612 31 h 20 m -10 -10 v 20 m 10 -20 v 20"/>
    </g>
</svg>