<?xml version="1.0" standalone="no"?>
<!DOCTYPE svg PUBLIC "-//W3C//DTD SVG 1.1//EN"
  "http://www.w3.org/Graphics/SVG/1.1/DTD/svg11.dtd">
<svg xmlns="http://www.w3.org/2000/svg" version="1.1" class="railroad-diagram" width="645" height="72" viewBox="0 0 645 72" xmlns:xlink="http://www.w3.org/1999/xlink">
    <defs>
        <style type="text/css"><![CDATA[ svg.railroad-diagram {
  background-color: #ffffff;
}
svg.railroad-diagram path {
  stroke-width: 2;
  stroke: #5a6872;
  fill: none;
}
svg.railroad-diagram text {
  font-size: 14px;
  font-family: 'ibm-plex-mono', 'Menlo', 'DejaVu Sans Mono', 'Bitstream Vera Sans Mono', Courier, monospace;
  color: #152935;
  text-anchor: middle;
  cursor: pointer;
}
svg.railroad-diagram text.label {
  text-anchor: start;
}
svg.railroad-diagram text.comment {
  font-size: 12px;
}
svg.railroad-diagram rect {
  stroke-width: 2;
  stroke:  #5a6872;
  fill: #5aaafa;
}
 ]]></style>
    </defs>
    <g transform="translate(.5 .5)">
        <path d="M 20 31 v 20 m 10 -20 v 20 m -10 -10 h 20.5"/>
        <g>
            <path d="M40 41h0"/>
            <path d="M604 41h0"/>
            <path d="M40 41h10"/>
            <g>
                <path d="M50 41h0"/>
                <path d="M134 41h0"/>
                <rect x="50" y="30" width="84" height="22" rx="10" ry="10"/>
                <text x="92" y="45">DESCRIBE</text>
            </g>
            <path d="M134 41h10"/>
            <path d="M144 41h10"/>
            <g>
                <path d="M154 41h0"/>
                <path d="M246 41h0"/>
                <rect x="154" y="30" width="92" height="22" rx="10" ry="10"/>
                <text x="200" y="45">METAINDEX</text>
            </g>
            <path d="M246 41h10"/>
            <path d="M256 41h10"/>
            <g>
                <path d="M266 41h0"/>
                <path d="M302 41h0"/>
                <rect x="266" y="30" width="36" height="22" rx="10" ry="10"/>
                <text x="284" y="45">ON</text>
            </g>
            <path d="M302 41h10"/>
            <path d="M312 41h10"/>
            <g>
                <a xlink:href="/docs/sql-query?topic=sql-query-sql-reference#metaindexAsset" target="_top">
                    <path d="M322 41h0"/>
                    <path d="M454 41h0"/>
                    <rect x="322" y="30" width="132" height="22"/>
                    <text x="388" y="45">metaindexAsset</text>
                </a>
            </g>
            <path d="M454 41h10"/>
            <g>
                <path d="M464 41h0"/>
                <path d="M604 41h0"/>
                <path d="M464 41a10 10 0 0 0 10 -10v0a10 10 0 0 1 10 -10"/>
                <g>
                    <path d="M484 21h100"/>
                </g>
                <path d="M584 21a10 10 0 0 1 10 10v0a10 10 0 0 0 10 10"/>
                <path d="M464 41h20"/>
                <g>
                    <a xlink:href="/docs/sql-query?topic=sql-query-sql-reference#intoClause" target="_top">
                        <path d="M484 41h0"/>
                        <path d="M584 41h0"/>
                        <rect x="484" y="30" width="100" height="22"/>
                        <text x="534" y="45">intoClause</text>
                    </a>
                </g>
                <path d="M584 41h20"/>
            </g>
        </g>
        <path d="M 604 41 h 20 m -10 -10 v 20 m 10 -20 v 20"/>
    </g>
</svg>