<?xml version="1.0" standalone="no"?>
<!DOCTYPE svg PUBLIC "-//W3C//DTD SVG 1.1//EN"
  "http://www.w3.org/Graphics/SVG/1.1/DTD/svg11.dtd">
<svg xmlns="http://www.w3.org/2000/svg" version="1.1" class="railroad-diagram" width="333" height="92" viewBox="0 0 333 92" xmlns:xlink="http://www.w3.org/1999/xlink">
    <defs>
        <style type="text/css"><![CDATA[ svg.railroad-diagram {
  background-color: #ffffff;
}
svg.railroad-diagram path {
  stroke-width: 2;
  stroke: #5a6872;
  fill: none;
}
svg.railroad-diagram text {
  font-size: 14px;
  font-family: 'ibm-plex-mono', 'Menlo', 'DejaVu Sans Mono', 'Bitstream Vera Sans Mono', Courier, monospace;
  color: #152935;
  text-anchor: middle;
  cursor: pointer;
}
svg.railroad-diagram text.label {
  text-anchor: start;
}
svg.railroad-diagram text.comment {
  font-size: 12px;
}
svg.railroad-diagram rect {
  stroke-width: 2;
  stroke:  #5a6872;
  fill: #5aaafa;
}
 ]]></style>
    </defs>
    <g transform="translate(.5 .5)">
        <path d="M 20 21 v 20 m 10 -20 v 20 m -10 -10 h 20.5"/>
        <g>
            <path d="M40 31h0"/>
            <path d="M292 31h0"/>
            <path d="M40 31h20"/>
            <g>
                <a xlink:href="#metaindexDescribeCommand">
                    <path d="M60 31h0"/>
                    <path d="M272 31h0"/>
                    <rect x="60" y="20" width="212" height="22"/>
                    <text x="166" y="35">metaindexDescribeCommand</text>
                </a>
            </g>
            <path d="M272 31h20"/>
            <path d="M40 31a10 10 0 0 1 10 10v10a10 10 0 0 0 10 10"/>
            <g>
                <a xlink:href="#metaindexShowCommand">
                    <path d="M60 61h16"/>
                    <path d="M256 61h16"/>
                    <rect x="76" y="50" width="180" height="22"/>
                    <text x="166" y="65">metaindexShowCommand</text>
                </a>
            </g>
            <path d="M272 61a10 10 0 0 0 10 -10v-10a10 10 0 0 1 10 -10"/>
        </g>
        <path d="M 292 31 h 20 m -10 -10 v 20 m 10 -20 v 20"/>
    </g>
</svg>