<?xml version="1.0" standalone="no"?>
<!DOCTYPE svg PUBLIC "-//W3C//DTD SVG 1.1//EN"
  "http://www.w3.org/Graphics/SVG/1.1/DTD/svg11.dtd">
<svg xmlns="http://www.w3.org/2000/svg" version="1.1" class="railroad-diagram" width="625" height="152" viewBox="0 0 625 152" xmlns:xlink="http://www.w3.org/1999/xlink" preserveAspectRatio="xMinYMin meet">
    <defs>
        <style type="text/css"><![CDATA[ svg.railroad-diagram {
  background-color: #ffffff;
}
svg.railroad-diagram path {
  stroke-width: 2;
  stroke: #5a6872;
  fill: none;
}
svg.railroad-diagram text {
  font-size: 14px;
  font-family: 'ibm-plex-mono', 'Menlo', 'DejaVu Sans Mono', 'Bitstream Vera Sans Mono', Courier, monospace;
  color: #152935;
  text-anchor: middle;
  cursor: pointer;
}
svg.railroad-diagram text.label {
  text-anchor: start;
}
svg.railroad-diagram text.comment {
  font-size: 12px;
}
svg.railroad-diagram rect {
  stroke-width: 2;
  stroke:  #5a6872;
  fill: #5aaafa;
}
 ]]></style>
    </defs>
    <g transform="translate(.5 .5)">
        <path d="M 20 21 v 20 m 10 -20 v 20 m -10 -10 h 20.5"/>
        <g>
            <path d="M40 31h0"/>
            <path d="M584 31h0"/>
            <path d="M40 31h20"/>
            <g>
                <a xlink:href="/docs/sql-query?topic=sql-query-sql-reference#primaryExpression" target="_top">
                    <path d="M60 31h174"/>
                    <path d="M390 31h174"/>
                    <rect x="234" y="20" width="156" height="22"/>
                    <text x="312" y="35">primaryExpression</text>
                </a>
            </g>
            <path d="M564 31h20"/>
            <path d="M40 31a10 10 0 0 1 10 10v10a10 10 0 0 0 10 10"/>
            <g>
                <path d="M60 61h100"/>
                <path d="M464 61h100"/>
                <path d="M160 61h10"/>
                <g>
                    <a xlink:href="/docs/sql-query?topic=sql-query-sql-reference#unaryOperator" target="_top">
                        <path d="M170 61h0"/>
                        <path d="M294 61h0"/>
                        <rect x="170" y="50" width="124" height="22"/>
                        <text x="232" y="65">unaryOperator</text>
                    </a>
                </g>
                <path d="M294 61h10"/>
                <path d="M304 61h10"/>
                <g>
                    <a xlink:href="/docs/sql-query?topic=sql-query-sql-reference#valueExpression" target="_top">
                        <path d="M314 61h0"/>
                        <path d="M454 61h0"/>
                        <rect x="314" y="50" width="140" height="22"/>
                        <text x="384" y="65">valueExpression</text>
                    </a>
                </g>
                <path d="M454 61h10"/>
            </g>
            <path d="M564 61a10 10 0 0 0 10 -10v-10a10 10 0 0 1 10 -10"/>
            <path d="M40 31a10 10 0 0 1 10 10v40a10 10 0 0 0 10 10"/>
            <g>
                <path d="M60 91h0"/>
                <path d="M564 91h0"/>
                <path d="M60 91h10"/>
                <g>
                    <a xlink:href="/docs/sql-query?topic=sql-query-sql-reference#valueExpression" target="_top">
                        <path d="M70 91h0"/>
                        <path d="M210 91h0"/>
                        <rect x="70" y="80" width="140" height="22"/>
                        <text x="140" y="95">valueExpression</text>
                    </a>
                </g>
                <path d="M210 91h10"/>
                <path d="M220 91h10"/>
                <g>
                    <a xlink:href="/docs/sql-query?topic=sql-query-sql-reference#arithmeticOperator" target="_top">
                        <path d="M230 91h0"/>
                        <path d="M394 91h0"/>
                        <rect x="230" y="80" width="164" height="22"/>
                        <text x="312" y="95">arithmeticOperator</text>
                    </a>
                </g>
                <path d="M394 91h10"/>
                <path d="M404 91h10"/>
                <g>
                    <a xlink:href="/docs/sql-query?topic=sql-query-sql-reference#valueExpression" target="_top">
                        <path d="M414 91h0"/>
                        <path d="M554 91h0"/>
                        <rect x="414" y="80" width="140" height="22"/>
                        <text x="484" y="95">valueExpression</text>
                    </a>
                </g>
                <path d="M554 91h10"/>
            </g>
            <path d="M564 91a10 10 0 0 0 10 -10v-40a10 10 0 0 1 10 -10"/>
            <path d="M40 31a10 10 0 0 1 10 10v70a10 10 0 0 0 10 10"/>
            <g>
                <path d="M60 121h0"/>
                <path d="M564 121h0"/>
                <path d="M60 121h10"/>
                <g>
                    <a xlink:href="/docs/sql-query?topic=sql-query-sql-reference#valueExpression" target="_top">
                        <path d="M70 121h0"/>
                        <path d="M210 121h0"/>
                        <rect x="70" y="110" width="140" height="22"/>
                        <text x="140" y="125">valueExpression</text>
                    </a>
                </g>
                <path d="M210 121h10"/>
                <path d="M220 121h10"/>
                <g>
                    <a xlink:href="/docs/sql-query?topic=sql-query-sql-reference#comparisonOperator" target="_top">
                        <path d="M230 121h0"/>
                        <path d="M394 121h0"/>
                        <rect x="230" y="110" width="164" height="22"/>
                        <text x="312" y="125">comparisonOperator</text>
                    </a>
                </g>
                <path d="M394 121h10"/>
                <path d="M404 121h10"/>
                <g>
                    <a xlink:href="/docs/sql-query?topic=sql-query-sql-reference#valueExpression" target="_top">
                        <path d="M414 121h0"/>
                        <path d="M554 121h0"/>
                        <rect x="414" y="110" width="140" height="22"/>
                        <text x="484" y="125">valueExpression</text>
                    </a>
                </g>
                <path d="M554 121h10"/>
            </g>
            <path d="M564 121a10 10 0 0 0 10 -10v-70a10 10 0 0 1 10 -10"/>
        </g>
        <path d="M 584 31 h 20 m -10 -10 v 20 m 10 -20 v 20"/>
    </g>
</svg>