<?xml version="1.0" standalone="no"?>
<!DOCTYPE svg PUBLIC "-//W3C//DTD SVG 1.1//EN"
  "http://www.w3.org/Graphics/SVG/1.1/DTD/svg11.dtd">
<svg xmlns="http://www.w3.org/2000/svg" version="1.1" class="railroad-diagram" width="465" height="62" viewBox="0 0 465 62" xmlns:xlink="http://www.w3.org/1999/xlink">
    <defs>
        <style type="text/css"><![CDATA[ svg.railroad-diagram {
  background-color: #ffffff;
}
svg.railroad-diagram path {
  stroke-width: 2;
  stroke: #5a6872;
  fill: none;
}
svg.railroad-diagram text {
  font-size: 14px;
  font-family: 'ibm-plex-mono', 'Menlo', 'DejaVu Sans Mono', 'Bitstream Vera Sans Mono', Courier, monospace;
  color: #152935;
  text-anchor: middle;
  cursor: pointer;
}
svg.railroad-diagram text.label {
  text-anchor: start;
}
svg.railroad-diagram text.comment {
  font-size: 12px;
}
svg.railroad-diagram rect {
  stroke-width: 2;
  stroke:  #5a6872;
  fill: #5aaafa;
}
 ]]></style>
    </defs>
    <g transform="translate(.5 .5)">
        <path d="M 20 21 v 20 m 10 -20 v 20 m -10 -10 h 20.5"/>
        <g>
            <path d="M40 31h0"/>
            <path d="M424 31h0"/>
            <path d="M40 31h10"/>
            <g>
                <path d="M50 31h0"/>
                <path d="M102 31h0"/>
                <rect x="50" y="20" width="52" height="22" rx="10" ry="10"/>
                <text x="76" y="35">WHEN</text>
            </g>
            <path d="M102 31h10"/>
            <path d="M112 31h10"/>
            <g>
                <a xlink:href="#expression">
                    <path d="M122 31h0"/>
                    <path d="M222 31h0"/>
                    <rect x="122" y="20" width="100" height="22"/>
                    <text x="172" y="35">expression</text>
                </a>
            </g>
            <path d="M222 31h10"/>
            <path d="M232 31h10"/>
            <g>
                <path d="M242 31h0"/>
                <path d="M294 31h0"/>
                <rect x="242" y="20" width="52" height="22" rx="10" ry="10"/>
                <text x="268" y="35">THEN</text>
            </g>
            <path d="M294 31h10"/>
            <path d="M304 31h10"/>
            <g>
                <a xlink:href="#expression">
                    <path d="M314 31h0"/>
                    <path d="M414 31h0"/>
                    <rect x="314" y="20" width="100" height="22"/>
                    <text x="364" y="35">expression</text>
                </a>
            </g>
            <path d="M414 31h10"/>
        </g>
        <path d="M 424 31 h 20 m -10 -10 v 20 m 10 -20 v 20"/>
    </g>
</svg>