<?xml version="1.0" standalone="no"?>
<!DOCTYPE svg PUBLIC "-//W3C//DTD SVG 1.1//EN"
  "http://www.w3.org/Graphics/SVG/1.1/DTD/svg11.dtd">
<svg xmlns="http://www.w3.org/2000/svg" version="1.1" class="railroad-diagram" width="437" height="92" viewBox="0 0 437 92" xmlns:xlink="http://www.w3.org/1999/xlink">
    <defs>
        <style type="text/css"><![CDATA[ svg.railroad-diagram {
  background-color: #ffffff;
}
svg.railroad-diagram path {
  stroke-width: 2;
  stroke: #5a6872;
  fill: none;
}
svg.railroad-diagram text {
  font-size: 14px;
  font-family: 'ibm-plex-mono', 'Menlo', 'DejaVu Sans Mono', 'Bitstream Vera Sans Mono', Courier, monospace;
  color: #152935;
  text-anchor: middle;
  cursor: pointer;
}
svg.railroad-diagram text.label {
  text-anchor: start;
}
svg.railroad-diagram text.comment {
  font-size: 12px;
}
svg.railroad-diagram rect {
  stroke-width: 2;
  stroke:  #5a6872;
  fill: #5aaafa;
}
 ]]></style>
    </defs>
    <g transform="translate(.5 .5)">
        <path d="M 20 21 v 20 m 10 -20 v 20 m -10 -10 h 20.5"/>
        <g>
            <path d="M40 31h0"/>
            <path d="M396 31h0"/>
            <g>
                <path d="M40 31h0"/>
                <path d="M180 31h0"/>
                <path d="M40 31h20"/>
                <g>
                    <path d="M60 31h4"/>
                    <path d="M156 31h4"/>
                    <rect x="64" y="20" width="92" height="22" rx="10" ry="10"/>
                    <text x="110" y="35">PARTITION</text>
                </g>
                <path d="M160 31h20"/>
                <path d="M40 31a10 10 0 0 1 10 10v10a10 10 0 0 0 10 10"/>
                <g>
                    <path d="M60 61h0"/>
                    <path d="M160 61h0"/>
                    <rect x="60" y="50" width="100" height="22" rx="10" ry="10"/>
                    <text x="110" y="65">DISTRIBUTE</text>
                </g>
                <path d="M160 61a10 10 0 0 0 10 -10v-10a10 10 0 0 1 10 -10"/>
            </g>
            <path d="M180 31h10"/>
            <g>
                <path d="M190 31h0"/>
                <path d="M226 31h0"/>
                <rect x="190" y="20" width="36" height="22" rx="10" ry="10"/>
                <text x="208" y="35">BY</text>
            </g>
            <path d="M226 31h10"/>
            <path d="M236 31h10"/>
            <g>
                <path d="M246 31h0"/>
                <path d="M386 31h0"/>
                <path d="M246 31h10"/>
                <g>
                    <path d="M256 31h0"/>
                    <path d="M376 31h0"/>
                    <path d="M256 31h10"/>
                    <g>
                        <a xlink:href="/docs/sql-query?topic=sql-query-sql-reference#expression" target="_top">
                            <path d="M266 31h0"/>
                            <path d="M366 31h0"/>
                            <rect x="266" y="20" width="100" height="22"/>
                            <text x="316" y="35">expression</text>
                        </a>
                    </g>
                    <path d="M366 31h10"/>
                </g>
                <path d="M376 31h10"/>
                <path d="M256 31a10 10 0 0 0 -10 10v10a10 10 0 0 0 10 10"/>
                <g>
                    <path d="M256 61h36"/>
                    <path d="M340 61h36"/>
                    <path d="M292 61h10"/>
                    <g>
                        <path d="M302 61h0"/>
                        <path d="M330 61h0"/>
                        <rect x="302" y="50" width="28" height="22" rx="10" ry="10"/>
                        <text x="316" y="65">,</text>
                    </g>
                    <path d="M330 61h10"/>
                </g>
                <path d="M376 61a10 10 0 0 0 10 -10v-10a10 10 0 0 0 -10 -10"/>
            </g>
            <path d="M386 31h10"/>
        </g>
        <path d="M 396 31 h 20 m -10 -10 v 20 m 10 -20 v 20"/>
    </g>
</svg>